/* XPM */
static char *_619a519a262463c82bddb90d2bb00060Jo18AFSAtWiltPs[] = {
/* columns rows colors chars-per-pixel */
"50 50 152 2 ",
"   c #144311",
".  c #1B4B17",
"X  c #1F4F18",
"o  c #1E511B",
"O  c #22541C",
"+  c #23591E",
"@  c #275520",
"#  c #2B5522",
"$  c #255B21",
"%  c #2C5C24",
"&  c #2D5E29",
"*  c #315726",
"=  c #315C26",
"-  c #325E29",
";  c #276022",
":  c #2D6126",
">  c #2E6328",
",  c #326127",
"<  c #34642B",
"1  c #39662E",
"2  c #35692E",
"3  c #3A692E",
"4  c #376730",
"5  c #3B6631",
"6  c #366A31",
"7  c #3C6C32",
"8  c #3F6F38",
"9  c #3D7135",
"0  c #3F7139",
"q  c #406F32",
"w  c #426B35",
"e  c #436B35",
"r  c #416D34",
"t  c #436C35",
"y  c #406E34",
"u  c #416E34",
"i  c #406F34",
"p  c #426F34",
"a  c #426E35",
"s  c #426F35",
"d  c #416D36",
"f  c #416F36",
"g  c #416E37",
"h  c #426F36",
"j  c #436F36",
"k  c #416D34",
"l  c #456E38",
"z  c #456F38",
"x  c #476F3A",
"c  c #436E3A",
"v  c #417034",
"b  c #407035",
"n  c #417035",
"m  c #407036",
"M  c #427037",
"N  c #437037",
"B  c #427137",
"V  c #437137",
"C  c #427237",
"Z  c #447137",
"A  c #457137",
"S  c #447237",
"D  c #477237",
"F  c #427236",
"G  c #487137",
"H  c #407138",
"J  c #407039",
"K  c #427038",
"L  c #437138",
"P  c #427139",
"I  c #417339",
"U  c #41723A",
"Y  c #40733B",
"T  c #41733B",
"R  c #447138",
"E  c #457139",
"W  c #47703A",
"Q  c #44723A",
"!  c #45733A",
"~  c #41743A",
"^  c #42743A",
"/  c #477439",
"(  c #45753B",
")  c #45773A",
"_  c #46763B",
"`  c #47743C",
"'  c #46763C",
"]  c #45743A",
"[  c #48703A",
"{  c #49713B",
"}  c #487439",
"|  c #4B723D",
" . c #49753D",
".. c #4A763C",
"X. c #4B773C",
"o. c #49753E",
"O. c #49773E",
"+. c #4A773F",
"@. c #4D743C",
"#. c #4D753C",
"$. c #4E763D",
"%. c #4F773D",
"&. c #4D743E",
"*. c #4E743E",
"=. c #4F763F",
"-. c #4A743C",
";. c #46783B",
":. c #467A3C",
">. c #48793D",
",. c #487B3E",
"<. c #497C3F",
"1. c #4A7C3E",
"2. c #4B7D3F",
"3. c #4A7A3E",
"4. c #50773C",
"5. c #517B3D",
"6. c #477541",
"7. c #4F7640",
"8. c #4C7541",
"9. c #4A7A41",
"0. c #4C7840",
"q. c #4D7941",
"w. c #4B7E40",
"e. c #4C7E40",
"r. c #4C7F40",
"t. c #4C7F41",
"y. c #4D7F42",
"u. c #4D7E44",
"i. c #4E7F45",
"p. c #4C7B42",
"a. c #507743",
"s. c #527B43",
"d. c #4B8040",
"f. c #4C8141",
"g. c #4D8243",
"h. c #4E8243",
"j. c #4E8344",
"k. c #4F8046",
"l. c #4F8445",
"z. c #4D8143",
"x. c #508047",
"c. c #508446",
"v. c #518547",
"b. c #528245",
"n. c #54854B",
"m. c #55864C",
"M. c #56874D",
"N. c #55854A",
"B. c #59864B",
"V. c #55884B",
"C. c #5C8A4F",
"Z. c #5C8B50",
/* pixels */
"< < < & # & y / / 9 7 3 } 4.#.w O # * q 7 7 6 4 4 y b b 3 1 1 < > > 6 w j - % % - x l 8 q j q w 3 w ",
"2 < < & % # 7 / / b 7 q D #.#.w * * * q 7 7 4 < 4 b q b 5 1 1 < < , 5 e e 1 % % 1 x 0 l p j j 1 q 3 ",
"< < 2 & % # J ' / v q 3 D #.4.w # # * q 7 7 6 < 3 y b b q 1 1 < , , 5 y e < % # 1 Q J J p j p 7 3 w ",
"7 y 7 7 8 7 8 7 7 ) } -.A j A 7 < < 7 x.x.9.1 < < > & & < 1 1 1 3 < q b j 5 < 1 1 1 7 7 5 7 5 y j y ",
"l 7 y J 0 0 8 5 5 W o.o.A q q 9 2 2 9 v.V.b.2 3 3 + # + < 1 , q 2 3 9 A l 7 < 1 1 1 1 1 1 3 5 Q b A ",
"8 l l J 8 0 7 8 7 Q o.o.A q v 9 2 2 9 V.N.f.2 < 1 % % + < q 1 1 3 3 7 A J 6 1 4 1 3 3 3 3 1 7 y Q y ",
"7 7 7 J ^ J 6.6.o./ Q b >.2.f.9 ; : 2 f.h.f.;.;.D 3 3 3 , , = , , > & < , < 1 < < , > 2 @.x x x j x ",
"6 4 6 J ^ J o.8.0./ b 9 >.b.v.0 ; + , f.f.d.2.2.1.q q q , = = = : & & & & < 1 4 < : : < 4.*.*.l x j ",
"7 4 7 8 ^ ^ ' 0.0./ 0 7 2.c.c.0 + + , f.r.f.f.f.1.q q q , % % , - & & & & - 1 < , > : < a.4.&.x x x ",
"4 & 4 8 / Q o.&.8./ Q Q b F F F 9 9 ) b.b.f.1 1 3 3 , 1 3 3 3 1 - - - & & < < 1 < & % = - 1 1 < 1 < ",
"& & & 8 Q J | 8.&.{ Q { q 3 2 F l.f.b.b.B.%.+ = + ; = ; v ;.D 3 5 5 - & & - 4 4 , % * & * * # & % & ",
"& & & 8 J l 8.8.8.-.A { 3 2 1 F f.f.f.B.B.2.= % , = = : v ) D 1 - 5 - & & - 4 4 - % # # * # % : : & ",
"4 < > 0 0 9 7 8 5 x | | x 9 v F D D ;.5.5.@.& , , = = = 1 3 7 1 - 4 & # # & < < , & , - < < < : & : ",
"4 4 6 6 9 9 < - - w 8.8.o.;.;.) q q q 4.4.j , , , * % = , 2 < < < < % @ @ & , , , < < < 3 3 2 % ; & ",
"6 4 2 8 9 9 < < - w 8.6.>.;.:.) e q p 4.4.G , , , % * * < 1 1 < < - * @ @ % > & , - > < 3 3 1 + % ; ",
"> 4 > 7 9 7 2 < 4 8 6.| Q b F v q q q 4.4.) , , , , - - < < < < - 4 % @ @ 1 8 7 7 4 6 4 1 < 1 = < < ",
"- - - 7 7 7 9 9 8 8 8 8 7 < 1 3 e q e 4.5.} , , , 3 w 7 < , , < 3 2 - & + Q x.x.u.^ ) 9 1 = , q q q ",
"- 1 - 5 q 7 7 9 6 8 c w 7 3 3 3 q q q 4.5.} = , = 3 1 7 < - < < < 1 > % % l x.i.9.0 ) 9 , , q q 3 q ",
"4 4 4 7 y y ^ / T W T 6.y 7 6 w v p p 4.#.D < < < 3 q q < = , 6 1 7 = & % J i.i.>.9 ^ 9 , , < q p q ",
"c 6.T ;.;.-.B.C.Z.M.n.m.0.x | o.5.5.G q 7 q / / -.A A b , & = 7 y y < : % 7 6.6./ v 7 7 - - < o.o.o.",
"6.6.c 6.>.) B.C.Z.M.m.m.0.x W o.s.p.X.w 3 e >.-.-.Q A A < % : 3 y e 1 : : 7 6.o.' 7 y w = = 1 &.9.9.",
"7 c 8 8 ) } b.B.M.x.u.k.9.o.W 6.X.X.o.q p p b A b y y j < , , 7 q y < , , 7 o.) J 7 y 7 < , 1 p 8 7 ",
"4 4 4 5 p p 5.s.b.9 2 2 ^ a.a.&.Q Q { X.X.) + + % 3 5 1 7 q b 7 7 7 < < , 1 1 w 7 6 6 6 1 1 , X X X ",
"4 4 4 7 p p 5.s.s.9 2 2 / i.s.6.Q D -.2.s.) = , & 3 3 7 7 v v 7 7 7 6 > , 3 w 3 7 6 7 1 1 1 , X X X ",
"4 4 2 7 b 7 X.s.s.J 3 2 ) p.a.8.{ Q -.X.r.D ; : , 3 7 1 q y y 7 7 7 6 , < 4 1 w 3 4 6 5 1 1 , o X O ",
"> < < 6 7 7 7 7 6 9 / / l 7 5 x s.s.8.b v q < , < D { { x e x - * * 1 5 4 1 1 1 1 w 5 7 5 5 4 # % # ",
"< 2 > 6 7 6 6 6 6 9 / ;.y 5 w l a.a.&.b v 3 > 2 2 D @.{ x e l - * & 1 4 5 4 1 1 1 5 5 5 5 7 1 % % % ",
"< > 2 6 7 7 6 6 6 b ;.-.l 7 5 | s.a.0.v v v 2 , 2 D @.@.x x x - * * - 7 5 5 1 - 1 7 5 5 1 w 4 # # $ ",
"@ % $ < 6 2 6 6 3 7 b J 8 w 8 c | 6.l : , : + + # - 1 - - 1 1 < - < - < < 6 9 7 4 1 - 1 1 , < & - & ",
"O @ @ > 6 2 6 7 7 7 9 9 7 8 l 8 W T 7 % , + O O O * * * - , & < 1 1 < - = 6 9 9 7 - - - - - - - - & ",
"# @ # < 6 6 6 6 7 7 9 7 l l l l T W l % % + O O O * * * > < < 4 1 1 < , , 3 7 9 3 < = < , < < * & - ",
"O O O < 6 6 7 y 7 Q 9.9.l < 4 5 7 7 < + + O O O O & # & % % % , < < , < , 2 2 2 3 3 3 < @ @ % 4 4 4 ",
"O O O 1 7 7 7 b y o.s.s.q < 1 < 4 4 - O + + o o O $ % % + % % < < < < < , < 2 6 6 9 9 2 o O @ 6 1 3 ",
"O O O 1 7 7 7 b w o.X.s.y < 1 3 4 5 4 + + o o o @ % % % % % + , < < < , , < > > 2 6 7 2 o O # 3 1 1 ",
"& : = 1 6 6 y b q { &.o.q 1 1 < - 1 < % % $ . . . & & & % % % 3 e q q < 2 J ,.9.( 9 9 6 $ % % 3 q 1 ",
"3 2 2 2 < 6 y Q b Q -.-.w 1 3 1 1 1 < , , %       & & & % % % j { { q 3 6 9.V.V.d.7 0 6 & = , 1 1 1 ",
"2 2 < 2 6 6 b b b Q | 6.w 1 1 1 1 1 1 = > $       $ & > & $ + j -.{ v 3 3 f.V.V.d.9 9 3 % & = 1 1 1 ",
"< , , < > < 9 J b | 8.8.Q y Q 5 = - - , > ; o o o & $ & > 4 < q q q 3 2 2 9 d.,.) q ) 9 , , < 3 3 3 ",
": > > : : & 7 J b o.q.8.9.9.0.7 % = > > 2 > $ $ $ $ $ $ 6 7 3 3 3 3 3 < 2 3 9 9 9 ) ) D , 3 1 q q q ",
"> , > : & % 7 0 y 8.a.a.8.>.9.y % % : 2 > > $ $ $ $ & $ 3 7 3 q 3 3 3 2 < 9 9 9 F ) ;.q 3 < < 9 3 9 ",
", : & > < > 0 ,.>.J 0 9 >.,.,.0 3 7 3 2 2 > $ $ $ $ $ $ , , < 3 7 q 3 < < 9 >.>.F 9 9 3 : , , q v 3 ",
"& = & < 4 6 f.v.v.9 ; ; 9 ,.:.,.p.p.>.7 9 2 $ $ + O + + $ % % 3 w y 3 < < A b.x.q : , : + + % q 3 v ",
"% = & < 4 4 f.v.V.6 ; ; 9 d.:.,.p.p.,.6 6 2 $ $ $ o + + % % % 1 7 7 1 < < Q b.b.D : < : + O % q q 3 ",
": , & < 4 < ) d.f.9 > > 9 ,.:.,.;.>./ 2 6 6 $ $ $ $ + O + % % 6 y 7 1 < 1 j 6.6.9 , , , % % % 3 1 w ",
"4 6 4 - : % 2 9 2 0 :.) d.u.k.( 3 3 9 9 9 7 % : & & % % - - - 1 7 6 7 7 7 1 * & - 2 < < = , & , , = ",
"< 4 4 > % & 2 3 7 9 ^ 9 w.d.k.' 3 3 3 9 9 2 % & % % % % = - - 3 7 7 7 6 7 - * - < < 2 < * = & , , , ",
"6 < 4 > = & 2 7 2 9 ) ) >.s.k./ 3 3 3 6 6 2 & % = , % * = - = 3 7 7 7 4 7 - % * - 3 2 < < , = = = = ",
"6 2 1 < - < 2 3 2 9 F F 2.b.x./ < < , @ @ $ # % % < < 1 , % & 7 8 7 5 1 4 * # @ - 0 9 9 7 9 3 * * % ",
"2 3 2 1 - - 1 6 1 9 F 9 r.b.b.} , 1 < + * + * + # < 1 1 , = % 3 7 8 6 4 5 * # # * T 8 0 7 7 2 * = * ",
"2 2 2 1 - - 1 3 3 9 ) 9 %.5.b.;., 1 < + + * # * % 1 1 1 , % & 3 8 7 6 1 5 * @ # & l 8 7 7 9 3 % % = "
};
