/* XPM */
static char *result[] = {
/* columns rows colors chars-per-pixel */
"50 50 256 2 ",
"   c black",
".  c #010101",
"X  c #020202",
"o  c gray1",
"O  c #040404",
"+  c gray2",
"@  c #060606",
"#  c #070707",
"$  c gray3",
"%  c #090909",
"&  c gray4",
"*  c #0B0B0B",
"=  c #0C0C0C",
"-  c gray5",
";  c #0E0E0E",
":  c gray6",
">  c #101010",
",  c #111111",
"<  c gray7",
"1  c #131313",
"2  c gray8",
"3  c #151515",
"4  c #161616",
"5  c gray9",
"6  c #181818",
"7  c #191919",
"8  c gray10",
"9  c #1B1B1B",
"0  c gray11",
"q  c #1D1D1D",
"w  c #1E1E1E",
"e  c gray12",
"r  c #202020",
"t  c gray13",
"y  c #222222",
"u  c #232323",
"i  c gray14",
"p  c #252525",
"a  c gray15",
"s  c #272727",
"d  c #282828",
"f  c gray16",
"g  c #2A2A2A",
"h  c gray17",
"j  c #2C2C2C",
"k  c #2D2D2D",
"l  c gray18",
"z  c #2F2F2F",
"x  c gray19",
"c  c #313131",
"v  c #323232",
"b  c gray20",
"n  c #343434",
"m  c #353535",
"M  c gray21",
"N  c #373737",
"B  c gray22",
"V  c #393939",
"C  c #3A3A3A",
"Z  c gray23",
"A  c #3C3C3C",
"S  c gray24",
"D  c #3E3E3E",
"F  c #3F3F3F",
"G  c gray25",
"H  c #414141",
"J  c gray26",
"K  c #434343",
"L  c #444444",
"P  c gray27",
"I  c #464646",
"U  c gray28",
"Y  c #484848",
"T  c #494949",
"R  c gray29",
"E  c #4B4B4B",
"W  c #4C4C4C",
"Q  c gray30",
"!  c #4E4E4E",
"~  c gray31",
"^  c #505050",
"/  c #515151",
"(  c gray32",
")  c #535353",
"_  c gray33",
"`  c #555555",
"'  c #565656",
"]  c gray34",
"[  c #585858",
"{  c gray35",
"}  c #5A5A5A",
"|  c #5B5B5B",
" . c gray36",
".. c #5D5D5D",
"X. c gray37",
"o. c #5F5F5F",
"O. c #606060",
"+. c gray38",
"@. c #626262",
"#. c gray39",
"$. c #646464",
"%. c #656565",
"&. c gray40",
"*. c #676767",
"=. c #686868",
"-. c DimGray",
";. c #6A6A6A",
":. c gray42",
">. c #6C6C6C",
",. c #6D6D6D",
"<. c gray43",
"1. c #6F6F6F",
"2. c gray44",
"3. c #717171",
"4. c #727272",
"5. c gray45",
"6. c #747474",
"7. c gray46",
"8. c #767676",
"9. c #777777",
"0. c gray47",
"q. c #797979",
"w. c gray48",
"e. c #7B7B7B",
"r. c #7C7C7C",
"t. c gray49",
"y. c #7E7E7E",
"u. c gray50",
"i. c #808080",
"p. c #818181",
"a. c gray51",
"s. c #838383",
"d. c #848484",
"f. c gray52",
"g. c #868686",
"h. c gray53",
"j. c #888888",
"k. c #898989",
"l. c gray54",
"z. c #8B8B8B",
"x. c gray55",
"c. c #8D8D8D",
"v. c #8E8E8E",
"b. c gray56",
"n. c #909090",
"m. c gray57",
"M. c #929292",
"N. c #939393",
"B. c gray58",
"V. c #959595",
"C. c gray59",
"Z. c #979797",
"A. c #989898",
"S. c gray60",
"D. c #9A9A9A",
"F. c #9B9B9B",
"G. c gray61",
"H. c #9D9D9D",
"J. c gray62",
"K. c #9F9F9F",
"L. c #A0A0A0",
"P. c gray63",
"I. c #A2A2A2",
"U. c gray64",
"Y. c #A4A4A4",
"T. c #A5A5A5",
"R. c gray65",
"E. c #A7A7A7",
"W. c gray66",
"Q. c #A9A9A9",
"!. c #AAAAAA",
"~. c gray67",
"^. c #ACACAC",
"/. c gray68",
"(. c #AEAEAE",
"). c #AFAFAF",
"_. c gray69",
"`. c #B1B1B1",
"'. c #B2B2B2",
"]. c gray70",
"[. c #B4B4B4",
"{. c gray71",
"}. c #B6B6B6",
"|. c #B7B7B7",
" X c gray72",
".X c #B9B9B9",
"XX c gray73",
"oX c #BBBBBB",
"OX c #BCBCBC",
"+X c gray74",
"@X c gray",
"#X c gray75",
"$X c #C0C0C0",
"%X c #C1C1C1",
"&X c gray76",
"*X c #C3C3C3",
"=X c gray77",
"-X c #C5C5C5",
";X c #C6C6C6",
":X c gray78",
">X c #C8C8C8",
",X c gray79",
"<X c #CACACA",
"1X c #CBCBCB",
"2X c gray80",
"3X c #CDCDCD",
"4X c #CECECE",
"5X c gray81",
"6X c #D0D0D0",
"7X c gray82",
"8X c #D2D2D2",
"9X c LightGray",
"0X c gray83",
"qX c #D5D5D5",
"wX c gray84",
"eX c #D7D7D7",
"rX c #D8D8D8",
"tX c gray85",
"yX c #DADADA",
"uX c gray86",
"iX c gainsboro",
"pX c #DDDDDD",
"aX c gray87",
"sX c #DFDFDF",
"dX c gray88",
"fX c #E1E1E1",
"gX c #E2E2E2",
"hX c gray89",
"jX c #E4E4E4",
"kX c gray90",
"lX c #E6E6E6",
"zX c #E7E7E7",
"xX c gray91",
"cX c #E9E9E9",
"vX c #EAEAEA",
"bX c gray92",
"nX c #ECECEC",
"mX c gray93",
"MX c #EEEEEE",
"NX c #EFEFEF",
"BX c gray94",
"VX c #F1F1F1",
"CX c gray95",
"ZX c #F3F3F3",
"AX c #F4F4F4",
"SX c gray96",
"DX c #F6F6F6",
"FX c gray97",
"GX c #F8F8F8",
"HX c #F9F9F9",
"JX c gray98",
"KX c #FBFBFB",
"LX c gray99",
"PX c #FDFDFD",
"IX c #FEFEFE",
"UX c white",
/* pixels */
"rXrXrX8X6X6XwXtXtX9X5X9X$X(.(.#XuXrXwX6X6X6X6X6X6X6X6X6X6X6X6X6X7X6XqXtXtX0X6X8X,XOX#X.X!./.Y.p.p.p.",
"rXtXrX8X6X6XeXtXtX0X6X9X$X(./.#XuXrXwX6X7X7X7X7X7X7X7X7X7X7X7X7X7X6XwXtXtX0X6X8X,XOX#X XQ.^.U.u.u.u.",
"rXtXrX8X6X6XwXtXtX9X5X9X$X(./.#XuXrXwX6X6X6X6X6X6X6X6X6X6X6X6X6X6X6XqXtXtX0X5X8X,XOX#X XQ.^.U.u.i.i.",
"rXtXrXXX].{.{.}.}.{.[.}.^.I.I.!.|.}.{.[.{.{.[.{.[.Q.W.W.).`._._._.`.^.Q.Q./.`._.)./.(.!.P.U.J.k.l.l.",
"rXtXrX{./.).(.(.(.(.(.).E.K.K.T.).(.(.(.(.(.(.)./.L.K.K.W.!.Q.Q.Q.!.I.J.J.Y.!.Q.Q.!.!.E.K.P.G.x.x.x.",
"tXtXtX|.).`._._._._._.'.W.K.K.R.`._._._._._._._.).P.L.P.Q.!.!.~.~.~.Y.L.L.R.^.~.~.~.^.W.P.I.J.c.c.c.",
"8X9X8X~.U.T.Y.Y.Y.Y.Y.Y.W.^.^.Q.Y.Y.R.^.^.^.^.^.~.W.W.W.}..X.X(.!.~.Q.W.W.Q.~.~.W.I.Y.J.n.M.z.3.3.3.",
"6X6X6XE.J.L.L.L.L.L.L.K.W.`.`.!.K.L.U.~.!.!.!.!.!.~.~.~.oX#X#X).Q.~.~.~.~.~.!.~.R.K.I.D.k.x.d.%.&.&.",
"6X6X6XQ.L.I.L.L.L.K.K.J.E._._.Q.K.K.U.^.~.~.~.~.~.~.~.~.OX$X$X_.!.~.~.!.!.!.!.~.R.J.L.S.l.x.f.=.=.=.",
"qXwXqXH.m.N.Y.~.Q.).].].`.)._./.Q.!.W.Y.Y.Y.Y.Y.Y.Y.Y.Y.!.~.~.R.Y.Y.W.~.!.~.~.!.(.].[.!.M.C.x.*.*.=.",
"tXtXtXZ.j.l.R.'.)..X$X$X|.(.)._._.`.^.K.L.L.L.L.L.L.L.L.K.K.K.L.L.K.R.~.!.!.~.Q.].$X%X{.Z.G.m.*.*.=.",
"rXtXrXC.j.l.E.].).XX$X$X X_.`.`._.`.^.K.L.L.L.L.L.L.L.L.L.L.L.L.L.K.W.(./.^.~.Q.'.@X#X].C.D.b.*.*.=.",
"rXtXrXK.N.V.I.W.R.~.(.(.!.R.E.E.E.E.E.W.W.W.W.W.W.W.W.W.W.W.W.W.W.Q.L.D.D.U.^.Q.'.@X#X[.F.K.N.*.*.=.",
"rXtXrXQ.J.P.J.H.J.H.G.G.H.J.J.H.H.G.I.`._.`.`.`.`._._._._._._._._.].A.j.j.F./.Q.'.@X@X{.K.U.Z.*.*.=.",
"rXtXrXR.F.H.H.J.J.J.J.J.H.H.G.J.L.K.Y._.)._._._._._._._._._._.`._.].A.j.j.F.(.Q.].$X%X|.L.Y.A.*.*.=.",
"rXtXrX/.U.T.T.T.T.T.T.T.W.!.^.U.C.C.H.(./././.(./.!.!.!.!.!.!.E.R.E.J.S.A.L.W.R.~.].[.~.Z.F.n.*.*.=.",
"rXtXrX|.).`.`.`.`.`.`.). X#X&X~.h.k.N.~.Q.!.!.!.Q.L.K.K.K.K.L.Z.V.N.E.].'.W.J.L.K.K.L.S.k.x.d.*.*.=.",
"tXtXtX}.)._.).).)._._.). X$X*X^.k.z.B.(.^.^.^.^.~.I.P.P.P.P.I.S.Z.V.W.].'.Q.P.I.P.K.P.D.k.x.f.*.*.=.",
"wXwXwX'.!.^.(._._./.~.~.(._.'.I.k.z.M.U.I.I.I.I.I.J.J.J.J.J.J.A.C.C.J.U.U.K.D.D.L.Q.Q.I.n.N.l.*.*.=.",
"5X5X5XE.J.K.~._._.T.J.P.B.h.k.l.z.z.z.l.l.l.l.l.z.V.C.C.C.C.C.C.C.A.g.r.t.d.x.h.K.%X#X}.K.U.Z.*.*.=.",
"0XqX0X!.P.I.(.].].W.P.T.A.x.v.c.c.c.c.c.c.c.c.c.v.A.S.A.A.A.A.A.Z.S.k.u.i.h.b.k.P.=X%X XP.T.A.*.*.=.",
"$X#X#XH.C.Z.L.Y.Y.G.C.S.v.d.g.g.g.g.g.g.g.g.g.f.g.v.b.b.b.b.b.n.m.M.f.t.t.a.h.s.C.'._.Q.C.S.b.*.*.=.",
";.=.=.=.=.=.=.=.=.=.=.=.=.=.=.=.=.=.=.=.=.=.*.*.=.=.=.=.=.=.*.4.8.7.7.7.8.<.*.=.=.=.=.=.=.=.=.=.=.=.",
"*.%.%.%.%.%.%.%.%.%.%.%.%.%.%.%.%.%.%.%.%.&.*.*.*.%.%.%.%.&.%.1.5.5.5.4.6.>.$.%.%.%.%.%.%.%.%.%.%.%.",
"3.1.2.1.1.1.1.1.1.1.1.1.2.2.2.2.2.2.2.1.2.<.=.*.=.2.2.2.2.2.1.q.r.e.r.r.t.8.1.2.2.2.2.2.2.2.2.1.1.1.",
"<X<X<X<X<X<X<X<X<X<X<X,X4X8X7X7X7X8X5X,X4XXX=.%.2.1X9X7X1X<X<X1X1X<X6X9X8X8X7X8X4X<X<X2X8X8X6X<X<X<X",
"8X8X8X8X8X8X8X8X8X8X9X8XwXuXyXuXyXuXrX7XwX%X=.%.2.9XiXyX9X8X8X8X8X8XeXuXyXyXyXuXeX8X8XqXuXuXtX8X8X8X",
"6X6X6X6X6X6X6X6X6X6X6X5X9XrXeXrXrXrXqX4X9X@X=.%.2.7XyXeX7X5X6X6X6X5XqXrXeXeXeXrX0X5X5X8XrXrXwX5X5X5X",
"W.E.E.E.W.E.`.[.}.P.B.B.K.!.E./.}.|./.B.Z.v.=.%.2.1X9X7X X].{.~.E.E.W.W.!.K.V.Z.C.V.V.C.Z.Z.C.V.V.V.",
"L.K.K.K.K.J.!.).`.Z.h.j.B.L.H.T.)._.Y.h.z.d.=.%.1.<X8X5X]./.).U.J.K.K.J.L.N.j.k.k.k.k.k.k.k.k.k.k.k.",
"P.L.L.L.L.K.^.`.'.S.l.z.Z.U.L.R._.`.R.l.c.g.=.%.1.1X9X7X{.).`.T.L.P.P.P.I.C.l.x.z.z.z.z.x.x.x.x.x.x.",
"|.}.}.}.}.|.Q.U.R.V.l.l.C.I.J.!.oXOX_.M.C.c.=.&.<.XX%X#XW.U.T.P.L.P.L.L.P.J.F.F.L.E.W.K.l.x.x.x.x.x.",
"#X#X#X#X#X$XW.J.I.B.z.z.Z.U.K.^.#X#X].V.S.b.=.&.<.[.XX XY.K.L.L.L.L.L.L.L.P.I.L.W.'.].E.l.x.x.x.x.x.",
"@X@X@X@X@X#XE.J.I.m.h.h.B.P.G.~.%X%X[.V.S.b.=.&.<.]..X|.I.J.K.P.I.I.I.I.I.P.L.K.R.`.'.R.j.l.l.x.x.z.",
"{.[.{.{.[.{./.!.!.~.^.~.).].]._.!./.Y.v.m.k.=.&.1.:X5X3X|.'.[.F.m.N.N.N.M.D.I.L.U.R.R.I.A.D.Z.z.z.x.",
").(.(.(.(.(._.`.).oX&X%X$X#X&X].G.L.S.k.x.f.=.%.2.9XiXtX&X+X%XZ.j.z.l.z.k.C.I.L.L.K.K.L.P.I.J.z.z.x.",
"`.`.`.`.`.`._.`._. X@X+X+X+X#X'.K.I.F.z.v.g.=.%.2.9XiXyX=X#X*XA.h.z.l.z.k.Z.Y.I.I.I.I.I.P.U.J.z.z.x.",
"W.W.W.W.W.W.W.W.R.{.#X+X@X+X#X'.J.I.S.d.h.i.=.&.1.&X<X>XQ.I.Y.D.C.C.C.C.C.C.C.C.C.C.C.C.C.C.B.z.z.x.",
"L.L.L.L.L.L.K.L.H.'.#X+X+X+X#X'.J.I.Z.t.i.e.=.&.<.]..X|.b.h.j.G.Y.I.I.I.Y.C.k.z.l.l.l.l.l.l.l.z.z.z.",
"L.L.L.L.L.L.L.P.K.[.&X#X$X#X&X[.L.Y.S.u.a.r.=.&.<.]..X|.n.h.j.S.K.J.K.L.I.V.k.z.z.x.x.z.l.l.z.x.x.x.",
"E.R.R.R.R.E.I.L.K.~.].'.'.'.[.W.C.D.n.w.r.0.=.&.1.$X:X-XT.J.K.Q.^.^.T.L.I.D.N.B.n.z.z.v.B.B.m.h.h.h.",
"`._._._._.`.Y.K.P.K.J.J.J.J.K.C.j.x.d.5.7.4.=.%.2.9XiXtX=X#X$X#X#X%X~.J.P.P.P.U.S.l.z.M.I.U.G.u.u.u.",
"'.`.`.`.`.'.T.P.I.P.I.P.I.U.Y.D.l.v.f.3.5.2.=.%.2.9XiXtX=X#X$X#X@X%X^.L.I.I.P.U.S.l.z.M.U.U.G.i.i.i.",
"E.R.E.E.R.E.J.F.G.H.J.J.D.Z.A.N.z.x.k.i.a.t.=.%.1.,X8X5X`.~.^.].}.|.Y.S.F.D.D.F.B.l.l.v.A.A.N.u.u.i.",
"b.c.v.v.v.v.v.v.v.N.C.Z.k.r.t.s.x.l.m.U.Y.A.=.&.<.'..X|.f.e.r.C.L.L.M.k.z.k.j.j.k.k.l.g.t.y.y.u.u.u.",
"M.m.m.m.m.m.m.m.m.C.S.D.x.u.i.f.v.x.N.U.Y.S.=.&.<. X#XOXl.u.i.D.Y.U.V.x.v.x.z.z.z.z.z.j.i.p.p.i.i.i.",
"l.j.k.k.k.k.k.k.j.x.v.n.f.w.e.u.g.d.l.Z.A.b.=.&.,.E./.~.a.w.e.M.D.D.x.d.g.d.s.d.d.s.d.p.e.e.e.e.e.e.",
"-.*.*.*.*.*.*.*.*.*.*.*.*.*.*.*.*.*.*.*.*.*.*.=.*.*.*.*.*.*.*.3.7.7.>.&.*.*.*.*.*.*.*.*.*.*.*.*.*.*.",
"-.*.=.*.*.*.*.*.*.*.*.*.*.=.=.*.*.*.*.*.*.*.=.=.=.*.*.*.=.=.*.3.7.7.>.*.=.*.=.=.=.=.=.=.=.=.=.=.=.=.",
"-.*.=.=.=.=.=.=.=.=.=.=.=.=.=.=.=.=.=.=.=.=.=.*.=.=.=.=.=.=.*.3.7.7.>.*.=.=.=.=.=.=.=.=.=.=.=.=.=.=."
};
