/* XPM */
static char *result[] = {
/* columns rows colors chars-per-pixel */
"50 50 129 2 ",
"   c #000000",
".  c #0D0E0E",
"X  c #0F1010",
"o  c #111112",
"O  c #1B1B1B",
"+  c #252526",
"@  c #282727",
"#  c #272728",
"$  c #2C2C2C",
"%  c #3B3B3A",
"&  c #434445",
"*  c #474849",
"=  c #4B4C4C",
"-  c #555657",
";  c #595A5A",
":  c #5F6061",
">  c #646566",
",  c #676869",
"<  c #696A6B",
"1  c #717272",
"2  c #767778",
"3  c #777879",
"4  c #78797B",
"5  c #B82700",
"6  c #BC2900",
"7  c #BC3107",
"8  c #BE350B",
"9  c #BF380F",
"0  c #C42E02",
"q  c #C2370D",
"w  c #C5390E",
"e  c #C83A0F",
"r  c #D43605",
"t  c #D83707",
"y  c #D93806",
"u  c #D63E0F",
"i  c #C53B11",
"p  c #C83C11",
"a  c #D53E10",
"s  c #E43E0A",
"d  c #D54114",
"f  c #D94315",
"g  c #D74518",
"h  c #DA4618",
"j  c #E7400B",
"k  c #EE430D",
"l  c #F3460F",
"z  c #E24716",
"x  c #E24817",
"c  c #E84816",
"v  c #E54A19",
"b  c #ED4D1B",
"n  c #F54610",
"m  c #FA4A12",
"M  c #F24F1C",
"N  c #EE501F",
"B  c #F4511E",
"V  c #FB521D",
"C  c #F35321",
"Z  c #FB5521",
"A  c #FD5824",
"S  c #CF7B62",
"D  c #D37D63",
"F  c #A3867D",
"G  c #AB897F",
"H  c #DE8267",
"J  c #E08367",
"K  c #E58669",
"L  c #EB896B",
"P  c #F28D6D",
"I  c #838485",
"U  c #858788",
"Y  c #8E9091",
"T  c #959494",
"R  c #989696",
"E  c #999897",
"W  c #959C9E",
"Q  c #9C9B9B",
"!  c #A58980",
"~  c #AC8C82",
"^  c #B18F85",
"/  c #A09F9E",
"(  c #BA9C93",
")  c #BDA199",
"_  c #979EA0",
"`  c #9C9FA0",
"'  c #9CA2A4",
"]  c #A3A3A3",
"[  c #A9A7A7",
"{  c #ABACAD",
"}  c #ADAFB0",
"|  c #AEB1B2",
" . c #B3B3B4",
".. c #B0B7BA",
"X. c #B7BABB",
"o. c #BABCBD",
"O. c #C5A59C",
"+. c #CFAFA5",
"@. c #D5B5AC",
"#. c #D9BCB3",
"$. c #E1C3BA",
"%. c #BBC0C2",
"&. c #C4C4C5",
"*. c #C4C9CA",
"=. c #C9CBCC",
"-. c #CFD2D3",
";. c #CBD4D8",
":. c #D2D4D6",
">. c #D6D7D8",
",. c #D7D9DB",
"<. c #DADCDE",
"1. c #EBCEC6",
"2. c #EDD0C8",
"3. c #F0D2C9",
"4. c #D6DFE3",
"5. c #DDDFE0",
"6. c #DEE1E3",
"7. c #DDE6EA",
"8. c #E2E5E7",
"9. c #E7EAEC",
"0. c #EAECEE",
"q. c #ECEFF1",
"w. c #EEF1F3",
"e. c #EAF7FC",
"r. c #ECF9FE",
"t. c #F1F4F6",
"y. c #F5F6F8",
"u. c #F6F9FC",
"i. c #FAFCFD",
/* pixels */
"B B B c v v h f f w 8 8 f C C b v v x f f a 8 8 9 M b v v x f g d 8 8 w V A B B b x c x d f d 8 8 8 ",
"B B B c v v f f f p 8 7 f B B M v v x f f d 9 8 q b b v v x f f p 8 8 q A V B B N x v x d f d 8 8 8 ",
"M B B v v v f f f w 8 8 f B B b v v x d f a 9 8 q M b v v x a g d 8 8 w V A B B N v v x d f d 8 8 q ",
"B B B v v v f f f w 8 8 f Z B b v v x d f a 8 8 q B b v v h f f d 8 8 w A V N B b v v x d f d 8 8 8 ",
"N B B b x v f f f w 8 7 f C B b x v x f f a 9 8 q M b x v z a f p 8 8 w A V B B N x v v f f d 8 8 8 ",
"B B B c v v f f f e 8 8 f V B N v v x d f f 9 8 q M b v v v f f d 8 8 w V B B B B x v x f f d 8 9 8 ",
"B B B v v v f f f e 8 8 f V B b v v x f f a 8 8 q M b v v x f f d 8 8 w A V B B b x c x d f d 8 8 8 ",
"B B B c v v f d f w 8 8 f C B b x v x f f a 8 8 q B M v v h f f d 8 8 w A Z B B b x c v f f d 8 8 q ",
"B B N v v v f f f e 8 8 f V B N v v x d f a 8 8 q B b v v x a g d 8 8 q Z V B B M v v x f f a 8 8 8 ",
"B B B c v v h f f w 8 7 f C B b x v x f f a q 8 q b b v v x g f d 8 8 q A Z B B b x v x d f d 9 8 8 ",
"B B B v v v f d h w 8 7 f V B M v v v f f a 9 8 q N b v v z a f p q 9 q Z Z B B M x v x d f d 8 8 8 ",
"B B B c v v f f f w 8 8 f B B b v v h f g a 8 8 q B b v v x g f d 8 8 i A V N B b v v h f f d 8 8 q ",
"B B B v v v h f f w 8 8 d B B N v v v f g a 9 9 q M N v v v g a d 8 8 q Z Z B C N v v x f f d 9 8 8 ",
"C C C b v b h g f d 9 9 h C C N v v h g g d 9 9 i C N v v v h h d 9 9 i A Z C C N v v v g f d 9 i 8 ",
"l l l j j j u r r 7 5 5 y m l k s s s r t r 6 5 6 n k s s s t t r 5 5 0 m m n n k s j s r y r 5 5 6 ",
"P P P K K K H H H H S S J P P L L L K H H H D S D L L K L K H H H S S H P P L P L K L K H J H D S S ",
"r.r.r.r.r.e.e.r.e.r.r.r.e.e.e.e.e.r.r.e.e.r.r.u.r.r.r.r.e.r.r.r.r.r.r.e.e.e.e.e.e.e.e.e.r.r.r.r.u.r.",
"0.0.0.0.t.u.u.y.u.u.y.y.u.u.u.y.u.q.q.u.u.y.0.0.0.0.0.0.y.y.y.q.q.y.u.u.y.u.u.u.u.y.i.u.u.w.0.0.q.0.",
"q.q.q.w.,.{ |  . .| | |  .} |  .} 8.8.{ | X.9.q.0.0.w.0.X.| | 6.8.} | |  . .} | }  .|  .} ,.w.q.w.0.",
"q.q.9.i.]                         =.o.    # u.i.i.w.q.q.+     X.=.                        ' i.9.q.w.",
"q.q.9.i.]                         =.o.    . = * - 8.t.0.+     o.=.                        ] i.0.q.q.",
"q.q.q.i.} O # + + .     o # + + O -.X.          X ,.w.9.+     X.:.O + + # o     . + + # O | u.0.q.w.",
"q.q.q.q.q.0.w.0.i.;     3 i.9.0.0.i.|           o 0.i.i.+     | i.9.w.9.i.4     ; i.0.0.0.q.q.q.q.q.",
"q.q.q.q.q.q.q.0.i.;     3 i.0.w.0.u.|     O I U I < , , o     | u.0.q.0.i.3     ; i.0.w.q.q.q.q.q.q.",
"q.q.q.q.9.q.q.9.i.;     3 i.9.q.9.i.|     @ i.i.0.o            .i.9.q.9.i.2     ; i.9.0.0.q.q.q.q.q.",
"q.q.q.w.t.t.t.q.i.;     4 i.9.w.w.i. .    + 9.q.,.X           | u.0.w.9.i.3     ; i.w.t.t.t.w.q.q.q.",
"q.q.q.-.=.=.=.*.,.=     4 i.0.8.*.>.R     + 0.w.8.1 , < o     | i.0.q.0.i.3     = ,.=.=.=.=.-.q.q.q.",
"q.q.0.[ R E E R ] %     3 i.w.=.T ] 1     + 0.q.0.i.i.i.#     | u.0.0.9.i.4     % ] T E E T ] q.q.0.",
"t.t.t.{ Q ' Q R [ %     4 i.t.:.Y ] 1     + t.t.t.0.t.0.+      .i.w.t.q.i.4     % [ ` / / Q { w.t.e.",
":.:.:.[ Q `  . .o.> # # I 5.:.*. .o.R $ $ = :.:.:.:.:.:.: * * | <.:.:.:.5.Y & = < ] Q ` / Q [ :.:.;.",
"E E E Q Q E <.t.t.&./ [ / Q T X.y.t.<.] [ ] E E E Q E E 0.i.i. .T E E Q T =.i.i.>.E / Q Q / Q E E E ",
"' ' ' ' ' _ 4.u.u.%.W ' ' ' _ %.r.r.6.Q ` ' ' ' ] ' ' ' 7.e.e..._ ] ' ' W *.r.e.;.W ' ' ' ' ' ] ' ' ",
"~ ^ ^ ~ ^ G #.1.1.) F F G G G O.2.1.#.G G ~ F ! F ^ G ~ $.1.1.( F F F ~ G +.3.3.@.G ~ ~ ~ ~ G F F ! ",
"B M M c x c f u f w 8 7 f V V M c x z u f u 8 7 w M M c c z u u u q 7 q V V M M c c c x u f u 8 8 q ",
"B B B c v v f d f e 8 7 f B B b v v h f d d 8 8 q M b x v v d f d 8 8 w Z Z B B M x c x d f d 9 8 8 ",
"B B C c v v f f f e 8 8 f B B b v v x d f d 8 8 q B M x v h d f a 9 8 w Z Z B B M x v v f f a 8 8 8 ",
"B B B v v v f f h w 8 7 f B B N v v v f f d 8 8 q B b v v v f f d 8 8 q A V N B M v v x d f p q 8 8 ",
"B B B c v v f f f w 8 8 f V B N v v x f f d 8 8 q b b v v x d f p 8 8 w Z Z B B b v v x f f d 9 8 8 ",
"B B B v v c h d f e 8 7 f B B N v c x d f d 8 8 q b b v v x f f d 8 8 w A Z B B b v v x d f a 9 8 q ",
"B B B v v v h f f e 8 8 f V B b x v x d d d 8 8 q B b v v x f f d 8 8 q Z V B B b v v x d f d 8 8 8 ",
"N B B N v v f d f w 8 7 f B B N v v v f f d 8 8 q N N v v x f f d 8 8 w Z C B B b v v x f f d 8 8 8 ",
"B B B c v v f d f e 8 8 f B B N v v x f d d 8 8 q B c c c h d f a 8 8 w A V B B b v v x f f d 8 8 q ",
"M B B v v v f f f e 8 8 f V B N x c h f f d 8 8 q B N v c v d g d 8 8 w Z V M B b v v x d f a 9 8 8 ",
"B B B c v v f f f e 8 8 f B B b v v x d f d 8 8 q N N v c h d f d 8 8 w A Z B B M v v x f f d 8 8 8 ",
"M B B c v v f f h w 8 7 f B B N v v v f f d q 8 q N b x c v f f p 8 8 q Z Z B B b v v x d f d 8 8 q ",
"B B B v v v h f f w 8 8 f B B N v v x f f d 8 8 q B B x c h d f d 8 9 q Z Z B B b v v x d f a 9 8 8 ",
"B B B v v v f f f e 8 7 f B B N c c x d f d 8 8 q b b x c v d f d 8 8 w Z Z B B b v v x f f a 9 8 8 ",
"B B B c v v f f f e 8 8 f V B b x x x d d d 8 8 q B B x c h f f d 8 8 w Z Z B B b v v x d f a 9 8 8 ",
"B B B v c v h d f e 8 7 h B B M c v x d h d 8 8 q M b c v h d f p 8 8 q Z V B B b x v x f f d 8 8 8 ",
"B B B v v v h d f e 8 8 h B B b x v x f f d 8 8 q M b v c x f h d 8 8 w A V B B N v v x f f d 8 8 8 "
};
