/* XPM */
static char *result[] = {
/* columns rows colors chars-per-pixel */
"50 50 169 2 ",
"   c #1B130E",
".  c #1D1510",
"X  c #261C14",
"o  c #281D15",
"O  c #39270B",
"+  c #3D2B0E",
"@  c #372614",
"#  c #3F2D11",
"$  c #33261A",
"%  c #3C2B1B",
"&  c #3E301C",
"*  c #322820",
"=  c #3F2F21",
"-  c #3D352C",
";  c #3F3A37",
":  c #422E0E",
">  c #45300F",
",  c #4A340F",
"<  c #5C3E05",
"1  c #543A0C",
"2  c #5B3E08",
"3  c #412E10",
"4  c #422E1B",
"5  c #453112",
"6  c #4C3412",
"7  c #4E3814",
"8  c #46311C",
"9  c #49331B",
"0  c #533B15",
"q  c #593E13",
"w  c #543C1A",
"e  c #593F19",
"r  c #453323",
"t  c #4B3621",
"y  c #4D3820",
"u  c #40372D",
"i  c #493B2D",
"p  c #533E24",
"a  c #473F39",
"s  c #5E410C",
"d  c #5E4214",
"f  c #5D421B",
"g  c #634306",
"h  c #684401",
"j  c #6D4A06",
"k  c #62440C",
"l  c #68470A",
"z  c #67480E",
"x  c #6C4B0C",
"c  c #724C06",
"v  c #714E0C",
"b  c #7B5206",
"n  c #76510D",
"m  c #7A540C",
"M  c #7F580E",
"N  c #634513",
"B  c #684710",
"V  c #674814",
"C  c #6B4B13",
"Z  c #62451A",
"A  c #664919",
"S  c #6A4E1C",
"D  c #714F14",
"F  c #6F521C",
"G  c #755213",
"H  c #785312",
"J  c #7D5812",
"K  c #74541B",
"L  c #7B5A1D",
"P  c #554227",
"I  c #5A4422",
"U  c #53422D",
"Y  c #58452F",
"T  c #5D4B2A",
"R  c #4F4236",
"E  c #4B423A",
"W  c #534434",
"Q  c #584836",
"!  c #55473B",
"~  c #574A3E",
"^  c #5B4C3B",
"/  c #5E513D",
"(  c #604622",
")  c #634924",
"_  c #634D2A",
"`  c #6D5225",
"'  c #665129",
"]  c #6C542C",
"[  c #755720",
"{  c #775925",
"}  c #7D5E25",
"|  c #70572E",
" . c #765C2B",
".. c #614E33",
"X. c #645234",
"o. c #6F5A36",
"O. c #63533C",
"+. c #6D5C3D",
"@. c #735C32",
"#. c #574C40",
"$. c #544E4C",
"%. c #55504F",
"&. c #5B544C",
"*. c #5F584C",
"=. c #585657",
"-. c #57575D",
";. c #5C5C5E",
":. c #655747",
">. c #6D5D42",
",. c #61554B",
"<. c #645A4C",
"1. c #645B52",
"2. c #625B58",
"3. c #6E6149",
"4. c #7A6644",
"5. c #75664B",
"6. c #7A6748",
"7. c #7C6A4D",
"8. c #696052",
"9. c #6C645A",
"0. c #7A6B54",
"q. c #70675B",
"w. c #72695C",
"e. c #595A62",
"r. c #615F62",
"t. c #5F6066",
"y. c #656261",
"u. c #686362",
"i. c #68666A",
"p. c #6E6B6C",
"a. c #64656B",
"s. c #776E60",
"d. c #736F69",
"f. c #6D6E74",
"g. c #737173",
"h. c #7E7975",
"j. c #72737C",
"k. c #7B7B7F",
"l. c #825705",
"z. c #855905",
"x. c #8B5E07",
"c. c #845B0D",
"v. c #895E0C",
"b. c #845C11",
"n. c #885F13",
"m. c #825E1A",
"M. c #8C610F",
"N. c #896115",
"B. c #8B641B",
"V. c #866527",
"C. c #8D6823",
"Z. c #81622A",
"A. c #8C6A29",
"S. c #956E27",
"D. c #946F29",
"F. c #977129",
"G. c #876937",
"H. c #826839",
"J. c #91723A",
"K. c #847252",
"L. c #917B50",
"P. c #A17F40",
"I. c #877960",
"U. c #A28040",
"Y. c #7C7E87",
"T. c #928C83",
"R. c #8F9197",
"E. c #919299",
"W. c #9A9EA6",
/* pixels */
"r ` F.c.V r } F.F.) t V.A.A.t _ J.V.{ r G.P.P.X.- - X.U.P.G.4 { V.J._ y D.A.V.y ) F.D.} r V M F.` r ",
"r A B.n N r L B.B.f t L N.B.t ( C.m.F r } S.S.I * * I S.S.} r K m.C.I 9 B.m.K y ( B.B.L r N n B.S r ",
"r A c.v N r G c.m e t z n c.t f z.m B r G l.v.6 X X 6 v.l.G r B m v.f r c.n l t e m z.G r d x v.N r ",
"r e v k q r G c.n f y x n b.t f n.x q t V v M : . . > c.G N r d l M.Z t b.n x t f m b.G r q k n f r ",
"w d x x d r G b.m e 9 x n b.t f c.x d t N x n #     + n x d r N x c.f t c.m x t e m c.G r N x x d w ",
"n x j v.D r H z.m e y l b c.t e b b D r k l g O     O s j k r C b m f t v.m l y q m v.G r D v.j x x ",
"5 U *.w.:.8 #.1.w.Q t &.8.w.t U <.9.<.9 ~ *.s.-     - s.<.~ 9 <.q.*.W t w.1.&.t Q w.1./ 8 :.q.&.W 6 ",
"i ~ <.w.:.9 ^ 1.s.^ t :.1.9.t W <.q.1.9 #.<.s.-     - s.<.~ 9 1.9.<.U t 9.8.:.r Q s.1.~ 8 :.w.<.~ i ",
"Y.4.z.v.D r N v x.f 9 M.c 2 t f v.m x r k x b >     : b c k r B m v.N r s c v.y f x.c N r D x.z.4.j.",
"T [ v.c.D r D m n f y M v V t f c.c.G r B n n :     : n n V r G c.M.f t k n M y e n M C r D n.c.[ X.",
"2 x c.c.C r G c.l w y n v v t f v.c.G r C n x +     : x m C r G b.c.f t x n n y w x c.G r C c.b.x 1 ",
"= w j x d r N x j w p n M c.t e x l V r C m n > X X > v m C r N x x w y b.M n y w x x N r N x j d = ",
"r d M m V r k x v w y v m b.y w x v V r N x x 5 o o 5 x l N r x n x w y c.H x y w x j N r V m m d = ",
"r Z v.v.C r V x x w t x n b.t w v m C r d k x > o o 5 v k d r C m x w 9 b.m x y w v x N r G n.v.A r ",
"r A v.M V r d k x w t x v G t w x m C r G c.x 5 o o 5 x c.G r C m x w t n n x y w j z d r V m v.A r ",
"r Z M n V r d l n e 9 x n n t w x m C r G c.x 3 X X 5 x c.G r C n l w t G v x 9 e n k d r V m c.f r ",
"r d x n V r N v M e t x v n t w s n x r G c.v +     + v c.G r C n k w t n v l t f n v V r V n x e r ",
"r f m n N r N v n e t s x n t f c.m C r C m M +     # J m C r C m c.e t n x s t e M x N r Z v n N r ",
"r d b v d r V v M e 9 x n H t f M.m C r C M m #   . + m m C r C H v.f t H v x 9 f m v V r N j c.f r ",
"$ d N.v N r C n n e p c.c.b.t f v.v N r G M v + .   + x c.G r N v v.f t b.v.b.p e m m x r d v n.d $ ",
"r Z v.v f r D c.m e t v M c.t f c.v N r G c.m +     + m c.G r N v v.f t c.M v t e m c.G r d v v.Z 4 ",
"r Z b.v N r G c.m f t x G n.t f M.v N r G M.M > .   > M M.C r N v n.f t b.G x t f H c.G r d v v.A r ",
"r V M.c s r H z.b d t l b z.t Z x.j s r n M.x.1 X X 1 x.M.m r k c x.Z t l.m j t e b v.G r d j x.A r ",
"% P +.3./ 8 X.>.5.W t O.>.5.t U +.3.O.8 ^ +.6.i X X i 7.+.^ 9 O.>.>.p t 5.>.O.t U 5.+.X.8 O.3.+.U % ",
"% E ;.p.1.8 $.2.g.~ r =.u.p.r W ;.f.u.9 $.;.g.E o X a g.;.$.9 u.f.-.W r d.y.=.r ~ g.r.$.8 2.d.-.R % ",
"f.4.c.J A r K n.n.f t B G n.t d z.T.R.Y.Z.l.N.7 o o 7 N.l.Z.k.R.T.l.f t m.H x t f n.b.G r A J z.4.f.",
"=.] x.n N r G z.c.f t x m b.9 ..L.K.0.<.4.H.M., o X , x.H.4.1.0.K.L...9 b.m x t f c.c.H r N n v.| =.",
"4 V v.x d r G b.n e t x m b.8 1.W.K < 4 p.h.M.6 o o 7 M.I.p.4 < K W.1.6 b.n x t f n c.G r d v v.Z 4 ",
"r f v k q r G b.m f t x m b.6 ,.E.S 2 8 y.d.M > .   5 M g.y.4 2 F E.<.9 b.m l t e m c.G r e k v e r ",
"w N x x N r G b.n e 9 x m b.9 ^ K.+.X.! >.3.n +     + n >.<.! X.+.K.^ 9 b.m x t f n c.G r N x x N w ",
"x x x c.D r G c.n f t x H c.t w b h.Y.j.` h k O .   O k h ` j.Y.h.c f t b.n x t f n c.H r C v.x j x ",
"w d x c.D r G v.c.f t x m b.t f c.} ] W A x J :   . > b.x A W ] } c.f t b.m x t f c.v.G r D c.l f w ",
"r f v c.D r D c.c.f y v m H t f M.b l 8 d x M.,     > M.v s 8 C m M.f 9 J n n t f M.M G r D c.n f r ",
"r Z v.n.D r N v N.f 9 n.n s t f M.m C r d v M.>     , M.v d r C m M.f r s x M.9 f M.n k r D c.M.N r ",
"d D v.v.D r C M m e t M v V t f M.M G r C n M #     > m M C r G M M.f r z n M t f n m C = D M.c.D d ",
"z v b.c.C r G M j w y n n x t f c.c.G r H M.x + . . + x c.G r G c.M.f 9 x n n y w z M G r C M.M n z ",
"r q x x N r V x j w 9 G M b.t w v x N r G v.v > o o > v c.G r d x v w r c.M J y f v x k r d x x e r ",
"r Z b n V r N v x w p v m c.t w x n V r V n x # . X # v v C r C v x f y M M x y w x x V r A n M Z r ",
"r A n.n.D r N x v w t x n b.t w x n C r s s n +     + v s s r C n x f y b.n z y w x x k r C M.M.A r ",
"r V x.l.V r 1 < j w y j c n t q j b x r G l.j + . . + j z.n r C b j 0 r m c j 9 0 j s 1 r z b M.A r ",
"= I  . ._ 8 P T @.P t ' | @.r P ' @.] 8 '  .o.&     & @. .' r ] @.' P t o.] ' t P @.T P r _ @. .I = ",
"@ E e.f.2.8 %.r.j.~ t -.a.f.r W e.f.y.8 %.e.j.;     ; j.e.$.8 y.f.e.R r f.a.e.t #.j.y.%.8 1.f.e.E @ ",
"i.>.G F ( t Z S L p t f S K t I J L F r A K L 5     5 L K A r F L m.f t K F d t I L S Z r Z F K >.i.",
"e.o.b v d r z v m q 9 j v m t Z M.m z r C m b > .   + b M x r z b v.Z r m c l t e b v k r s v b @.e.",
"$ d n.v f r C n M e y n.v.c.r Z c.v s r G M s # o o > s M G r N x v.f t b.c.c.y f m m C r d n N.d $ ",
"r N v.v d r G c.n e t v M b.t f M.v N r G c.m 6 o o 5 n c.G r N v v.f t b.M n t f n c.G r N v c.N = ",
"r A v.v d r G c.m e 9 x n c.t f M.x N r G c.M , o o 7 M c.G r N v M.f t c.n z t w m c.H r d v v.A r ",
"r A v.v N r H c.M f t z M b.t f M.n N r G M.M.7 X X 7 M.M.G r d v N.f t b.m x t f m c.H r d v M.Z r ",
"r d n x N r V n l w 9 l v n t e n x d r V n n > o X 5 n x V r d l m w t n x x t w l n C r d n m d r ",
"t e x x N r N z s w p x x z t w l k q t 1 s s # o o 5 s s s r s k x f 9 z x x y w s l N r d x x f r "
};
