/* XPM */
static char *_260c643ea20454582af30717e7a53134XWSzeRdqVG5u4Cn[] = {
/* columns rows colors chars-per-pixel */
"50 50 180 2 ",
"   c #010102",
".  c #080807",
"X  c #06070B",
"o  c #0C0C0C",
"O  c #0F100F",
"+  c #0D0E10",
"@  c #0F1112",
"#  c #141414",
"$  c #181717",
"%  c #171817",
"&  c #181817",
"*  c #141619",
"=  c #171818",
"-  c #1B1C1C",
";  c #2C1F0C",
":  c #201F1F",
">  c #1F201F",
",  c #2F210E",
"<  c #33240E",
"1  c #382509",
"2  c #21211F",
"3  c #342611",
"4  c #372812",
"5  c #3B2B13",
"6  c #302518",
"7  c #3A2D1A",
"8  c #3F301C",
"9  c #1D1E20",
"0  c #1F2020",
"q  c #232423",
"w  c #272827",
"e  c #282827",
"r  c #272828",
"t  c #2B2C2B",
"y  c #322A22",
"u  c #302F2F",
"i  c #2F302F",
"p  c #33302E",
"a  c #3E342A",
"s  c #2F2F30",
"d  c #2E3031",
"f  c #333433",
"g  c #383737",
"h  c #373836",
"j  c #383837",
"k  c #363739",
"l  c #373839",
"z  c #3B3C3B",
"x  c #412C0D",
"c  c #402D11",
"v  c #43331C",
"b  c #4B361A",
"n  c #513815",
"m  c #5C3F14",
"M  c #543C1B",
"N  c #593F19",
"B  c #4C3A23",
"V  c #42372C",
"C  c #533D23",
"Z  c #403F3D",
"A  c #3F403F",
"S  c #5E4007",
"D  c #5D4116",
"F  c #5C421B",
"G  c #654301",
"H  c #694807",
"J  c #65460D",
"K  c #67490E",
"L  c #6B4B0D",
"P  c #714E0D",
"I  c #7D5407",
"U  c #76510D",
"Y  c #7B550D",
"T  c #7F580F",
"R  c #644613",
"E  c #664814",
"W  c #6B4B13",
"Q  c #62461A",
"!  c #66481A",
"~  c #694B19",
"^  c #714F13",
"/  c #6F511D",
"(  c #745114",
")  c #795413",
"_  c #7F5810",
"`  c #74541B",
"'  c #7C5A1C",
"]  c #5D4522",
"[  c #53422C",
"{  c #5A4728",
"}  c #5A462B",
"|  c #4F4237",
" . c #41403F",
".. c #534333",
"X. c #5D4C36",
"o. c #524539",
"O. c #5D4E3E",
"+. c #604725",
"@. c #6A4E24",
"#. c #624B29",
"$. c #6F5627",
"%. c #6B542D",
"&. c #7B5C25",
"*. c #745B2C",
"=. c #6A5639",
"-. c #6B5A3F",
";. c #765D30",
":. c #72603F",
">. c #3F4041",
",. c #444443",
"<. c #494846",
"1. c #474748",
"2. c #484848",
"3. c #4B4B4C",
"4. c #5A4E40",
"5. c #5C5043",
"6. c #53504E",
"7. c #5C5149",
"8. c #4D4E51",
"9. c #4F5053",
"0. c #535353",
"q. c #585857",
"w. c #555659",
"e. c #57595A",
"r. c #5B5B5C",
"t. c #655747",
"y. c #6C5D44",
"u. c #655B4E",
"i. c #635E5B",
"p. c #6C604F",
"a. c #796746",
"s. c #6B6154",
"d. c #61615E",
"f. c #6B635B",
"g. c #756954",
"h. c #756B5C",
"j. c #5E5F61",
"k. c #605F62",
"l. c #5F6062",
"z. c #646464",
"x. c #6B6867",
"c. c #65666A",
"v. c #686768",
"b. c #6B6B6C",
"n. c #716F6F",
"m. c #72706F",
"M. c #6D6E71",
"N. c #706F71",
"B. c #737274",
"V. c #787777",
"C. c #757679",
"Z. c #78787A",
"A. c #7C7B7D",
"S. c #875B07",
"D. c #835A0E",
"F. c #895E0D",
"G. c #815A12",
"H. c #8E6009",
"J. c #88631C",
"K. c #876628",
"L. c #916E2A",
"P. c #997128",
"I. c #87724D",
"U. c #867556",
"Y. c #807769",
"T. c #A68243",
"R. c #938A7C",
"E. c #7D7D80",
"W. c #7F8084",
"Q. c #838284",
"!. c #85858A",
"~. c #898788",
"^. c #8B8B8D",
"/. c #929295",
"(. c #95959A",
"). c #9A999E",
"_. c #A4A6AA",
"`. c #B4B6BE",
"'. c #C2C2C5",
"]. c #DADCE1",
/* pixels */
"+.J.M L.@.*.&.%.K.#.T.[           & ,.z j  .g z z z z 3.3.0.,.0.q           [ T.#.K.%.&.&.@.L.M J.+.",
"] G.M J.! ` ` @.' ] P.B           t l g z h z z ,.Z z 6.2.3.0.r.<.          B P.+.' @.' ` +.J.M G.+.",
"F Y M T D R ^ ! Y F S.5         . f u q g j t g  .z j ,.Z l <.0.<.-         5 F.N U ! W R D ) M U Q ",
"C L M T Q R ^ ! L M T <         # f q z f f z f  .,.f a f f ,.<.<.f         < I M L ! ^ R Q D.M L M ",
"D L M _ D E ^ ! L M U ,       . : t f t l z z 2 g e e u u g u Z j z 2       , U M W ! ^ E D G.M W D ",
"L U Q T D E ^ D U M H ,       o & - q e t u e t 2 e e : q h y u p t p .     ; L N U Q ^ E D I Q U L ",
"C u.o.u.O.O.u...s.[ f.6       o $ & q e q : : e - u e : q l t t p e f -     y s.[ s...y.4.O.u...s.C ",
"o.f.C u.O.t.t...s...f.y     . q q - t u e e q : - e e q t t e t f t e e .   y s...u...u.5.O.u...s...",
"h.S.F P ~ P m E U M U 1     # e s t q f f j e q u q f p t z z 2 f s p u $   < U M U E m ^ ~ P M S.g.",
"$.H.F ) D W R ! D.N P <   . q q f g t l g ,.t p p f t y p t p A j Z ,.j j @ 1 U N _ E R W D Y ] G.*.",
"J D.F ) N W R Q G.F U 3   . e : q q q q q g 2 q 2 - : e 2 2 q t p s u f f q , U N G.! R W N U F D.J ",
"b L M K N W ) N K N U 3   t l u t f ,.z t ,.<.,. . .h j z ,.A A 3.0.2.z j j 5 U N L F ( W D L M L M ",
"M T M W N W ) N P M L 4   e - O - # & $ % - - 2 - - & & 2 2 - & q t q = 9 = 4 P M P N ^ W N L M Y M ",
"F F.N K N R ( N P M L 1 - z e k j ,.6.f h  .z ,.2. .<.<.3.<.6.<.j 3.e.x.0.<.c K M ^ N ^ R N L M H.F ",
"F G.M J D E W N ^ F ) 3 @ # o o $ # o O o O O o % % # # # o 2 % o o # = - - 5 _ F P D W R F K M G.F ",
"N _ M K D E E N P Q D.< <.,.z e p z z ,. .2.2.8.2.A A r.3.0.<.8.z.0.e.2.,.>.3 Y Q ^ N W R D K M D.M ",
"M P N W Q K W M L Q Y 3 t q q # - q : - q q e q q q q t e s q q f u k f e q , D.D L M W R Q L M ^ b ",
"N P M L D D R ! U M T 4 0 - - - - - O $ & & 0 q q q q - e q q 0 - t e t s t 3 G.M ) ! L D D P M U F ",
"N ) M P Q R W ! ) F Y 4 ,.r.z 3.0.,.,.0.1.,.z ,.g >.,.,.2.M.e.3.c.k.A w.e.8.7 Y F U ! R R Q P M U F ",
"M U M ) D ( ^ ! W D Y 3 - @ @ * % % & $ % $ > O @ $ # & & 9 q q q r : 9 q = , Y F ^ ! ( ) Q ^ M Y b ",
"N U M _ D W ^ ! ( F D.3 - o $ q > # $ & - * q - # - - - q q e q q r - - - * < D.F ^ ! ^ J Q ) M Y F ",
"F _ M G.F E ` ! P F D.3 k  .2.z 1.z ,.z ,.q.2.,.r.1.3.e.r.z.b.,.z <.z.v.k.w.3 S.N P ! ^ E N G.M Y F ",
"Q I M D.m K P E P N H.c # * 9 q - % - $ & & * 2 q w q q q e d r # - q t u t 5 H.F P E ^ K D D.M Y ] ",
"B y.C -.X.X.y.{ -.[ a.a & $ $ - $ > # # % & * > # q - > q q * $ @ $ $ q : : a a.[ y.{ y.X.X.y.C y.B ",
"V c.o.i.7.7.i.o.x.o.x.a 2 - r 9 - q w e # # % % - > 0 q q t d 0 9 q e t e q a c.o.v.o.i.6.7.k...z.V ",
"h.G.M G.! Q ( m R.Y.S.v 3.0.i.z c.z.0.z.i.B.B.e.A r.C.3.6.l.z.A.^.C.k.M.N.M.B S.Y.R.R ^ E ! G.M G.g.",
"=.D.M D.Q R P =.U.s.K.x * # # # o # * - t r q - & - 0 # * - # 9 $ & * $ - = c K.u.U.=.P E Q G.M T =.",
"N Y M _ D R P x.*...I.x 9 & & q * - - 0 t q q t 3.d 0 A >.,.t - q q e : q q x I.o.&.x.P E D Y M Y D ",
"M L b G.Q E P i.$...a.1 X . .   # % # # q - # r q # * q * 0 * @ # @ . @ # + 1 a.o.*.f.P E F D.M L M ",
"D L M G.D E P t.:.O.*.< l <.,.e.8.6.8.w.0.0.r.c.q.q.0.c.q.r.w.w.e.0.e.6.e.0.4 *.5.-.=.P E F T F L D ",
"L Y Q G.Q R ( m V.h.G 7 9.<.z.!.l.r.0.c.M.Z.r.r.w.e.r.l.w.M.e.r.N.N.C.v.x.8.3 G x.Y.m ^ E D _ F ) L ",
"N U F D.Q R ( E &.{ Y 4 @ # $ O - # # - q d * % # @ > - - & 0 d : e @ - $ @ 3 Y +.&.! ^ E ! G.D U N ",
"M G.N D.! K ^ ! Y n G.1 # k q : q r w d 0 d f > r d t t w w 0 >.>.l w r q d 5 T n Y ! W W ! T F Y F ",
"C F.M P ! ^ m ! ) M G.5   * - . O 0 r > # O - = # - . . # % % % r * 0 # - * 5 T M Y E D ^ ! P M G.F ",
"W F.N ) D ^ R ! G.N G., q t 9 - r d f t w t t r t d w q w r w h ,.l i r e t 4 I F _ ! D W D ) F H.~ ",
"^ D.N ) N W R ! Y Q Y 3 M.N.b.v.W.Z.!.W.W.^.W.B.B.W.B.C.B.!.V.Z.(.).!.Q.A.b.7 U F _ ! E W M ) F D.L ",
"M L M L N ^ ( N L Q Y 7 e.w.3.z.l.e.C.r.l.C.M.,.A.A.v.b.9.l.9.0./.(.!.r.M.8.7 Y D L M ) ^ N L M L M ",
"M Y M L N W ( N L M U 3 = $ $ 9 # > > > f 0 > 0 $ * r q 0 > - r k q t $ 9 9 3 U N L N ( W F L M Y C ",
"N F.N H N E ^ N ) M L 3 q e s q 0 > 0 A A r > > * > q - = d t r r f d d t t 3 K M ) N ( E M L M H.F ",
"+.S.M m N J L N P D I , # q d $ 0 > w 0 0 0 f w > q % i q 0 > - q q q r * - 3 I Q L N L K D S M I F ",
"C ;.[ { { { %.[ %.{ ;.6     o o o . @ > . . > > # . . # # O % o X X o   . . 6 *.{ %.{ %.{ { #.C ;.] ",
"V c...l.7.0.d.o.c...c.f q p t t d A 3.>.A A f A A d A A d A A d h z z z l r p c.| v.o.i.6.7.k.o.c.a ",
"s.` M / +.F ! Q ` C ' 4 c.r.k.z.0.0.8.0.9.l.<.A d.d.n.v.0.r.n.v.C.c.c.0.0.z.4 ' M ' +.! F +.~ C ^ p.",
"y.P n P Q K W ! U F I 3 e.V.z.e.r.n.d.8.r.V.W././.v.A.~.A.^.~.^.E.A.b.j.r.w.5 I N U ! W E Q P M U p.",
"n Y M U F ) ) ! P F U 7 z.B.z.r.W.W.A.b.~.d._.]._.W.v.).'._.`.`.C.z.B.B.C.c.V P Q W ! ` ( D ) M Y n ",
"F Y M Y D W ^ ! P F T 7 - & j j A q.A A A A d <.l t f f i t 6.A f >.t t q t 5 D.D P ! ^ W D ) M ) F ",
"F Y M _ F E ^ ! ^ F D.8 1.0.j 0.0.B.W.A.z.n.<.A f 9.M.<.w A f A z j.z.M.c.k c G.F W ! ^ E D D.M Y F ",
"F T M G.F E ( ! P F H.B C.z.x.r.B.0.<.b.v.q.9.,.v.n.E.l.q.d.A.x.B.!./.(.C.x.v H.F ^ ! ( E D G.M Y F ",
"M P M P N R W D K M P v Z.C./.W.e.3.z 9.,.q.,.q.z.z.B.E.b.x.V.m._.C.d.0.w.W.v L F K F E E D P M P F ",
"M L M K M R R N J b S 8 8.3.v.e.q.r.j.d.l.A.r.r.M.l.z.x.m.V.A.A.A.0.w.9.8.m.8 G b J D D R n J M K M "
};
