/* XPM */
static char *_e20bb59ea474757efdcb88263aa10b37WAHRHeq4yTtN1k4[] = {
/* columns rows colors chars-per-pixel */
"50 50 159 2 ",
"   c None",
".  c #171107",
"X  c #181107",
"o  c #1B1308",
"O  c #352412",
"+  c #382612",
"@  c #3B2913",
"#  c #3F3F3F",
"$  c #4B2D1B",
"%  c #412B1D",
"&  c #4D3523",
"*  c #523B27",
"=  c #5A3822",
"-  c #543C29",
";  c #633922",
":  c #643720",
">  c #5D4330",
",  c #6C422D",
"<  c #654936",
"1  c #674C3F",
"2  c #6B4937",
"3  c #774E3D",
"4  c #7C4F3F",
"5  c #734733",
"6  c #7E513D",
"7  c #3D3B46",
"8  c #2E266B",
"9  c #2F2869",
"0  c #203869",
"q  c #362D7D",
"w  c #362D7A",
"e  c #403F49",
"r  c #43336E",
"t  c #483677",
"y  c #4C397E",
"u  c #493779",
"i  c #004E4E",
"p  c #005656",
"a  c #005E5E",
"s  c #375C56",
"d  c #3F675F",
"f  c #23497D",
"g  c #006363",
"h  c #006D6D",
"j  c #007474",
"k  c #007A7A",
"l  c #306B65",
"z  c #2E726D",
"x  c #217975",
"c  c #494949",
"v  c #4A4955",
"b  c gray34",
"n  c gray36",
"m  c #53515E",
"M  c #6A4E42",
"N  c #6D5044",
"B  c #7B5A47",
"V  c #77584A",
"C  c #7D5C49",
"Z  c #735548",
"A  c #4B665D",
"S  c #55655B",
"D  c #59695E",
"F  c #696054",
"G  c #555362",
"H  c #5D5B6A",
"J  c #5A5866",
"K  c #5A4374",
"L  c #5C457B",
"P  c #574175",
"I  c #644B6E",
"U  c #71536F",
"Y  c #684D76",
"T  c #644B77",
"R  c #6C537C",
"E  c #765875",
"W  c #546C62",
"Q  c #50786F",
"!  c #457C74",
"~  c #4A7E74",
"^  c #656565",
"/  c #66666D",
"(  c #646371",
")  c #79627D",
"_  c #804F41",
"`  c #885F4D",
"'  c #83614D",
"]  c #95644E",
"[  c #9B674E",
"{  c #9D684F",
"}  c #866253",
"|  c #8A6554",
" . c #8D6954",
".. c #8F6A58",
"X. c #946551",
"o. c #946A55",
"O. c #9D6C55",
"+. c #956E5B",
"@. c #996F5C",
"#. c #986551",
"$. c #98705E",
"%. c #A16F57",
"&. c #A16F59",
"*. c #A5735B",
"=. c #A9755E",
"-. c #A27057",
";. c #9D7460",
":. c #A27763",
">. c #A47965",
",. c #AA7A64",
"<. c #AB7E69",
"1. c #A97A65",
"2. c #AE816B",
"3. c #B0826C",
"4. c #B1836D",
"5. c #B78874",
"6. c #BB8B76",
"7. c #BE8D78",
"8. c #B38772",
"9. c #C08F7A",
"0. c #C3917C",
"q. c #372E80",
"w. c #392F86",
"e. c #3A3086",
"r. c #3C328B",
"t. c #3F3493",
"y. c #403596",
"u. c #423895",
"i. c #423799",
"p. c #44399C",
"a. c #284E8A",
"s. c #244D82",
"d. c #275089",
"f. c #28518D",
"g. c #615383",
"h. c #6A5B93",
"j. c #7A648A",
"k. c #008484",
"l. c #008A8A",
"z. c #1B8F8C",
"x. c #009595",
"c. c #009B9B",
"v. c #0D9291",
"b. c #288A86",
"n. c #00A4A4",
"m. c #00A8A8",
"M. c #00B9B9",
"N. c #619B91",
"B. c #5EA298",
"V. c #B5998C",
"C. c #BCA297",
"Z. c #BCABA3",
"A. c #C2A79A",
"S. c #CAB5AC",
"D. c #CEBCB4",
"F. c #C7BBB6",
"G. c #D6C8C2",
"H. c #DCD8D7",
"J. c gray90",
/* pixels */
"                                                                                                    ",
"                                                                                                    ",
"                          % @ + O O O O O + + + + + @ @ @ @ @ @ @ @ @ @ X o o o                     ",
"                          @ @ + O O O O + + + O + + @ @ @ @ @ @ @ @ @ @ o o o o                     ",
"                          O @ @ O O @ + O O @ O O + + + + O O + O O @ @ o o o o                     ",
"                          @ + + @ O * * * * > * * * * * * O O + O O @ @ o o o o                     ",
"                          + O O O @ @.$.;.;.$.$.$.....;.` + O O O @ @ @ o o o o                     ",
"                          @ O O > < :.:.;.:.:.:.>.;.:.;.+.< * O @ @ @ @ o o o o                     ",
"                          @ @ @ ' $.2.<.,.<.2.2.8.2.2.4.>...N @ @ O @ @ o o o o                     ",
"                          B B B ;.>.4.2.2.<.<.<.2.2.2.2.2.>.@.C C C C C o o o o                     ",
"                          $.$.@.<.<.<.2.8.2.<.1.<.<.<.<.2.2.>.;.;.;.;.;.o o o o                     ",
"                          <.2.2.T g.P j.H.S.<.<.>.Y P P g.Z.V.2.<.<.2.<.o o o o                     ",
"                          3.3.2.L u y h.J.D.2.<.<.K t t g.F.C.2.3.3.3.3.o o o o                     ",
"                          3.3.3.T u.u h.J.D.<.:.:.K u r g.H.S.4.3.3.2.3.o o o o                     ",
"                          2.2.2.E Y Y j.G.C.$.+.o.U Y I ) D.A.4.2.2.3.4.o o o o                     ",
"                          <.<.<.<.<.<.<.3.O.3 3 3 >.4.4.4.<.2.2.<.<.2.2.. . o X                     ",
"                          ,.,.,.=.,.,.=.o.] 3 6 6 X.#.,.,.,.,.,.,.,.,.<.& % X X                     ",
"                          =.*.*.=.=.=.%.6 6 6 6 _ B _ =.=.=.=.*.*.*.=.=.6 , X X                     ",
"                          *.-.-.O.O.%.O. .[ ] ] ] ] #.=.-.%.%.%.%.%.%.%.5 , $ $                     ",
"                          -.-.O.O.O.O.O.O.O.O.{ #.%.&.%.%.O.%.%.%.O.O.O., , ; ;                     ",
"                          O.{ { { { [ [ { { [ [ { { { { { { { { { { { { ; ; ; ;                     ",
"                          O.X. . . . . . .] ] ] ] ] ]  . . . . . .X. . .= = ; ;                     ",
"                            l.l.d.k.k k j l B B N N M k k k j h h j h j i i                         ",
"                            x.c.x.l.k.k.k.x W F B S A l.l.k.j g j k k k p p                         ",
"                            M.M.m.n.n.n.c.c.c.Q } z.c.c.n.x.k.a k l.l.l.h g                         ",
"                            B.B.N.N.m.n.c.c.c.b.! v.x.c.c.c.k.a z ~ ~ ~ s s                         ",
"                            6.6.0.0.m.n.n.c.c.c.x.x.x.x.x.c.k.g D $.....N N                         ",
"                            9.9.7.7.n.n.x.c.c.x.x.c.c.c.c.x.k.g W +.| } N N                         ",
"                            9.0.7.6.n.n.x.x.x.x.x.c.c.n.c.c.k.g D +.| } N N                         ",
"                            5.5.5.6.m.n.x.x.x.c.c.c.c.c.c.c.k.a S ....| M M                         ",
"                            5.5.5.7.n.n.x.x.x.c.x.c.c.c.c.c.k.g S ....o.M M                         ",
"                            0.0.7.5.x.c.x.c.c.x.x.c.n.n.n.c.k.g S +.+.+.1 1                         ",
"                            0.0.7.7.c.c.x.c.c.x.x.c.n.n.n.c.l.g D +.+.+.M M                         ",
"                            0.0.0.0.m.n.x.c.c.c.c.c.c.c.c.c.l.a D +.+.+.N N                         ",
"                              0.0.0.n.n.x.x.n.c.c.c.c.c.c.n.l.g l +.+.;.Z                           ",
"                                    n.n.x.x.n.c.c.n.n.c.c.n.l.a                                     ",
"                                    f.f.a.a.f.s.f d.f.f.a.f.s.0                                     ",
"                                    r.r.w.w.w.w 8 q.w.e.w.e.w 8                                     ",
"                                    i.i.t.t.t.q 8 r.t.t.t.p.r.8                                     ",
"                                    p.p.t.t.t.q 8 r.t.t.t.p.r.8                                     ",
"                                    i.i.t.y.i.q 8 r.t.t.y.i.e.8                                     ",
"                                    i.i.y.y.i.q 8 r.y.y.y.i.w.8                                     ",
"                                    i.i.y.t.y.q 8 r.y.y.y.y.w.8                                     ",
"                                    i.i.y.i.i.q.8 r.i.y.y.y.w.8                                     ",
"                                    i.i.u.p.p.q 8 t.i.y.y.y.e.8                                     ",
"                                    y.i.p.p.p.q 8 y.p.y.y.i.e.8                                     ",
"                                    u.u.u.p.p.q 9 u.p.y.u.u.e.9                                     ",
"                                    ( ( G J H v 7 m J H H H m 7                                     ",
"                                    / / F S ^ v > G W n H ^ b c                                     ",
"                                                                                                    "
};
