/* XPM */
static char *_101511e0b02454983261c6a7267a1d1gPg09Nm2OeHyyvPs[] = {
/* columns rows colors chars-per-pixel */
"50 50 169 2 ",
"   c None",
".  c #181107",
"X  c #1B1308",
"o  c #22180D",
"O  c #20170B",
"+  c #352411",
"@  c #382612",
"#  c #3B2913",
"$  c #3C281A",
"%  c #3F3F3F",
"&  c #482E1A",
"*  c #46321D",
"=  c #4C3623",
"-  c #543C29",
";  c #563925",
":  c #643922",
">  c #603E2D",
",  c #69402B",
"<  c #70442F",
"1  c #634835",
"2  c #654A3A",
"3  c #774E3D",
"4  c #7C4F3F",
"5  c #754935",
"6  c #6F513F",
"7  c #70513E",
"8  c #3D3B46",
"9  c #2E266B",
"0  c #2F2869",
"q  c #203869",
"w  c #322A75",
"e  c #342B79",
"r  c #403F49",
"t  c #43336F",
"y  c #483677",
"u  c #4C397E",
"i  c #523D77",
"p  c #004E4E",
"a  c #005353",
"s  c #005B5B",
"d  c #385D57",
"f  c #22487B",
"g  c #006363",
"h  c #006C6C",
"j  c #007474",
"k  c #007D7D",
"l  c #3C6861",
"z  c #35766F",
"x  c #2A7772",
"c  c #474747",
"v  c #504E5B",
"b  c #5C5C5C",
"n  c gray33",
"m  c #514E4F",
"M  c #6A4E41",
"N  c #6D5144",
"B  c #7B5A47",
"V  c #7D5B49",
"C  c #745648",
"Z  c #6D5E52",
"A  c #4F685E",
"S  c #50645B",
"D  c #666A5C",
"F  c #696C5E",
"G  c #64675B",
"H  c #5A5867",
"J  c #5E5C6B",
"K  c #565563",
"L  c #5C4475",
"P  c #56407C",
"I  c #5A437A",
"U  c #654B6E",
"Y  c #605E6D",
"T  c #684D76",
"R  c #634A7B",
"E  c #6D5173",
"W  c #705276",
"Q  c #406B63",
"!  c #546C62",
"~  c #44766E",
"^  c #5E7368",
"/  c #477D75",
"(  c #636363",
")  c gray42",
"_  c #646371",
"`  c #80533F",
"'  c #804F41",
"]  c #885948",
"[  c #85614B",
"{  c #95644E",
"}  c #9B674E",
"|  c #9D684F",
" . c #846151",
".. c #8A6553",
"X. c #8D6954",
"o. c #8F6A58",
"O. c #956753",
"+. c #996652",
"@. c #926A56",
"#. c #9D6C55",
"$. c #946D5A",
"%. c #9A6E5B",
"&. c #99705D",
"*. c #A16F57",
"=. c #A16F58",
"-. c #A17057",
";. c #A5725B",
":. c #A9755E",
">. c #9D7460",
",. c #A17763",
"<. c #A57965",
"1. c #AA7A64",
"2. c #AB7E69",
"3. c #A97A64",
"4. c #9F8F7D",
"5. c #AE816B",
"6. c #B0826C",
"7. c #A18F7D",
"8. c #B78874",
"9. c #BB8B76",
"0. c #BE8D78",
"q. c #B38772",
"w. c #A1907F",
"e. c #C08F7A",
"r. c #C3917C",
"t. c #372E81",
"y. c #392F84",
"u. c #3A3084",
"i. c #3D338E",
"p. c #3F3493",
"a. c #403596",
"s. c #433995",
"d. c #423799",
"f. c #44399C",
"g. c #284E8A",
"h. c #234C80",
"j. c #28518D",
"k. c #6C5C88",
"l. c #746389",
"z. c #7A6D9D",
"x. c #846E84",
"c. c #89728D",
"v. c #827096",
"b. c #008484",
"n. c #008B8B",
"m. c #009595",
"M. c #0C9695",
"N. c #009B9B",
"B. c #099C9B",
"V. c #2F8782",
"C. c #00A2A2",
"Z. c #09A5A4",
"A. c #00B9B9",
"S. c #539C93",
"D. c #619B91",
"F. c #5EA298",
"G. c #8F9686",
"H. c #A59382",
"J. c #B89C8F",
"K. c #B49486",
"L. c #BFA193",
"P. c #BCABA3",
"I. c #C4AA9E",
"U. c #C7AFA4",
"Y. c #C8B2A7",
"T. c #C7BBB6",
"R. c #DCD8D7",
"E. c #D6C8C2",
"W. c gray90",
/* pixels */
"                                                                                                    ",
"                                                                                                    ",
"                          X X O + # # # # # # # # # # @ @ @ @ @ + + + + @ $ #                       ",
"                        X X X X @ # # # # # # # # # # @ @ @ @ @ + + + + @ # # &                     ",
"                        X X X X @ # + + @ + + @ @ + + + + $ @ + @ @ @ @ # $ @ @                     ",
"                        X X X O + # + + @ + @ * - - - - - - ; ; - - # @ @ @ @ @                     ",
"                        X X X X + + # # + + @ B $.$.$.&.&.&.>.&.&.$.* @ + + @ @                     ",
"                        X X X X + # # + + = 1 o.<.,.,.<.<.,.,.,.>.;.7 1 + + # #                     ",
"                        X X X X + # @ @ @ 1 o.<.5.5.5.6.6.2.2.2.2.2.>.O.@ @ $ #                     ",
"                        X X X X 6 V V V V $.<.2.5.5.5.2.2.2.2.5.2.2.2.<.B B V V                     ",
"                        X X X o ..&.&.>.>.2.q.5.2.2.2.2.1.2.5.q.2.2.2.2.&.&.&.&.                    ",
"                        X X X o &.5.5.5.2.K.P.l.I i L 2.2.2.I.R.z.i k.R 2.2.2.2.                    ",
"                        X X X o &.5.6.6.2.J.Y.k.y y i 2.3.2.Y.W.z.u u i 6.6.5.6.                    ",
"                        X X X o &.5.6.6.5.I.R.l.t y i >.,.2.Y.W.z.u u I 5.6.6.5.                    ",
"                        X X X o &.5.5.5.6.I.T.x.U T E @.#.&.J.E.c.T T E 5.5.5.5.                    ",
"                        . X . X &.5.2.5.5.5.5.6.6.6.2.3 3 3 @.5.2.2.5.2.2.5.2.2.                    ",
"                        X X $ ; #.2.1.1.:.1.1.5.:.#.+.N ` ` ] +.:.1.1.<.:.1.1.1.                    ",
"                        . X - ` ;.:.:.;.;.;.:.:.;.] ` B ` ' ' ' #.:.;.;.;.:.:.:.                    ",
"                        & & , 5 #.-.-.-.-.-.-.-.-.+.+.{ { +.{ { #.&.#.#.#.;.-.;.                    ",
"                        : : , < { #.#.#.-.#.#.-.-.-.-.#.+.+.*.*.#.#.#.#.#.-.-.-.                    ",
"                        : : : : { } | | | | | | } } } } +.+.| | } } | | | | #.#.                    ",
"                          : ; : [ X.X.X.X.X.X.X.X.{ { { +.{ O.O.X.X.X.X.X.@.|                       ",
"                            p a h j h h h j k k j Z 7 C 7 Z l j j j k b.n.n.                        ",
"                            a a j j k j g j b.b.b.l S B D Q V.h.b.b.n.n.m.m.                        ",
"                            h h n.n.n.b.s k m.C.C.N.M.X.^ N.N.N.C.C.C.C.A.A.                        ",
"                            d d ~ / / z g k N.N.N.m.m./ V.N.N.N.C.Z.F.S.F.F.                        ",
"                            N N X.X.&.F g k N.m.m.m.m.m.N.N.C.N.C.Z.H.e.0.9.                        ",
"                            N N [ X.$.F g k N.N.N.m.N.m.N.N.N.m.C.Z.w.0.0.r.                        ",
"                            N N [ ..o.D g k m.N.N.N.N.m.m.m.m.m.C.Z.4.0.r.e.                        ",
"                            M M ..X.o.G g k N.N.N.N.N.m.m.N.m.m.C.Z.4.9.9.9.                        ",
"                            M M ..o.o.G g b.N.C.C.N.N.N.N.m.m.m.N.Z.7.9.8.8.                        ",
"                            M M X.$.$.D g k N.C.C.C.C.n.m.N.N.m.m.M.7.e.e.e.                        ",
"                            M M X.$.$.D g b.N.C.C.C.N.m.m.N.N.m.N.B.H.9.r.r.                        ",
"                            M C $.&.$.D g b.C.C.N.N.N.N.N.N.N.m.C.Z.H.K.r.r.                        ",
"                              C $.%.$.A g n.C.C.N.N.N.N.N.C.m.m.C.Z.G.r.K.                          ",
"                                        g h.C.C.N.C.C.N.N.C.B.m.C.Z.                                ",
"                                        q f j.g.j.j.j.f f j.g.g.g.j.                                ",
"                                        9 w i.i.u.e u.0 w u.y.y.y.i.                                ",
"                                        9 t.f.a.s.p.i.0 w p.p.d.s.f.                                ",
"                                        9 y.f.a.s.p.i.0 e p.g.f.a.f.                                ",
"                                        9 t.a.a.p.p.p.9 e f.a.p.f.f.                                ",
"                                        9 t.f.a.p.p.i.9 e f.a.a.s.f.                                ",
"                                        9 t.a.a.p.d.p.9 e p.a.a.f.d.                                ",
"                                        9 t.a.a.p.d.p.9 e f.a.a.d.d.                                ",
"                                        9 t.a.a.p.d.p.9 e f.f.a.f.d.                                ",
"                                        9 t.a.s.d.f.f.9 t.f.f.f.a.a.                                ",
"                                        9 u.f.s.s.f.a.9 e f.d.s.s.s.                                ",
"                                        r v Y H H H K 8 c J H K Y _                                 ",
"                                        c n ( ( b b b c c ( b b ( )                                 ",
"                                                                                                    "
};
