/* XPM */
static char *_a6d6c3bef1f490191dce9170c6c6b730cGG7Nirf9Eggjyb[] = {
/* columns rows colors chars-per-pixel */
"50 50 197 2 ",
"   c None",
".  c #000000",
"X  c #0A0F09",
"o  c #081706",
"O  c #0B130A",
"+  c #0C1D0A",
"@  c #081B07",
"#  c #111E0F",
"$  c #141E12",
"%  c #082707",
"&  c #0C250B",
"*  c #0C2B0B",
"=  c #112F0F",
"-  c #152214",
";  c #142B12",
":  c #1C2C1A",
">  c #153D13",
",  c #183816",
"<  c #20301F",
"1  c #232C22",
"2  c #273625",
"3  c #0E4B0E",
"4  c #194C15",
"5  c #1C4F1A",
"6  c #164614",
"7  c #1F551E",
"8  c #21471F",
"9  c #205D19",
"0  c #294226",
"q  c #234A21",
"w  c #2D4B2A",
"e  c #284425",
"r  c #255422",
"t  c #2B5326",
"y  c #2E562B",
"u  c #32552F",
"i  c #395834",
"p  c #2B7E29",
"a  c #297326",
"s  c #31762C",
"d  c #346531",
"f  c #3A6336",
"g  c #356D32",
"h  c #386B33",
"j  c #3E6A3A",
"k  c #3D6639",
"l  c #357532",
"z  c #397535",
"x  c #3A7B37",
"c  c #3E763B",
"v  c #3E7B3A",
"b  c #357833",
"n  c #42653B",
"m  c #446B3E",
"M  c #42733F",
"N  c #457D3E",
"B  c #465843",
"V  c #4A6946",
"C  c #477341",
"Z  c #487140",
"A  c #4B7C44",
"S  c #4E764A",
"D  c #4D7E49",
"F  c #467E42",
"G  c #51774C",
"H  c #527A4E",
"J  c #5D7C5A",
"K  c #547F50",
"L  c #627E60",
"P  c #18AC17",
"I  c #1BAB1A",
"U  c #238121",
"Y  c #30852D",
"T  c #358632",
"R  c #3D8C3A",
"E  c #398B36",
"W  c #23AE21",
"Q  c #31AB2E",
"!  c #28B226",
"~  c #3CA838",
"^  c #34B531",
"/  c #39B735",
"(  c #3FB93B",
")  c #3BB837",
"_  c #418D3D",
"`  c #429D3E",
"'  c #43A73F",
"]  c #42B53E",
"[  c #42BA3D",
"{  c #4D8046",
"}  c #4A8B46",
"|  c #53814D",
" . c #508B4C",
".. c #4A9843",
"X. c #4F994A",
"o. c #4A9144",
"O. c #539A4B",
"+. c #5A9B4F",
"@. c #558151",
"#. c #5A8255",
"$. c #579053",
"%. c #5B9C55",
"&. c #61835C",
"*. c #63975D",
"=. c #4BAB47",
"-. c #45BB41",
";. c #49BC45",
":. c #4EBD4A",
">. c #48B746",
",. c #53BF4C",
"<. c #54B24F",
"1. c #5BA654",
"2. c #5EA759",
"3. c #58BE55",
"4. c #60A057",
"5. c #64A15D",
"6. c #61AE5A",
"7. c #66B35A",
"8. c #648461",
"9. c #698566",
"0. c #70826E",
"q. c #6C9C68",
"w. c #718170",
"e. c #779973",
"r. c #67A062",
"t. c #68A362",
"y. c #68AA62",
"u. c #6EA868",
"i. c #6FA369",
"p. c #6AB965",
"a. c #68B562",
"s. c #7AA675",
"d. c #79BC72",
"f. c #53C04E",
"g. c #5BC355",
"h. c #5DC358",
"j. c #55C050",
"k. c #62C55C",
"l. c #6AC55C",
"z. c #67C85F",
"x. c #69CC5C",
"c. c #64CA57",
"v. c #66C661",
"b. c #69C763",
"n. c #6CC965",
"m. c #6FC969",
"M. c #70CF61",
"N. c #73CB6B",
"B. c #75D067",
"V. c #76D069",
"C. c #79D06C",
"Z. c #76CB70",
"A. c #7BCD75",
"S. c #7FCF78",
"D. c #7ED173",
"F. c #82CE7B",
"G. c #80C67D",
"H. c #85D27B",
"J. c #89D47F",
"K. c #81D276",
"L. c #8CAA8A",
"P. c #81A880",
"I. c #9AB898",
"U. c #A0BD9E",
"Y. c #8ACD84",
"T. c #83C180",
"R. c #90CB8A",
"E. c #94C68E",
"W. c #8AD282",
"Q. c #8FD488",
"!. c #87D180",
"~. c #91D687",
"^. c #94D58C",
"/. c #98D88E",
"(. c #99CC94",
"). c #9BCE98",
"_. c #97D491",
"`. c #9AD593",
"'. c #9FD898",
"]. c #9FD198",
"[. c #A0C99E",
"{. c #A0D29B",
"}. c #A2D99B",
"|. c #AECEAC",
" X c #B1CEAF",
".X c #A7DAA0",
"XX c #ABDCA5",
"oX c #AFD3AB",
"OX c #AFDCA8",
"+X c #A8D1A1",
"@X c #B1D2AD",
"#X c #B3DEAC",
"$X c #B2DBAB",
"%X c #B4CBB3",
"&X c #BACEB9",
"*X c #BFD2BD",
"=X c #B8D3B5",
/* pixels */
"                                                                                                    ",
"                                                                                                    ",
"                                                                                                    ",
"                                                                                                    ",
"                                                                                                    ",
"                            /.Q.!.V.n.^ ,.*X].M.H./././.M.V./.H.M.*.| @.#.                          ",
"                            ~.Q.~.V.M.( 3.|._.C.J.~.Q.W.B.D._.!.N.1.D #.&.                          ",
"                            M./.$XD.M.H.A.,.A.OX`.W.b.k.~._.@X{.!.O.a L w.                          ",
"                            C./.}.K.C./.R.n.K.}.!.Z.z.c.W.W.{.^.Z.X.s J 9.                          ",
"                            !.!.~.W.W.@XoX}.^.V.g.:.x.M.M.M.N.n.c.X.N | @.                          ",
"                            m.a.q.5.u.e.s.J.J.H.6...+.+.+.4.B.N.N.5.#.&.8.                          ",
"                            :.o.Z M m m N B.K./.*.C m n n A M.C.J.s.9.0.L                           ",
"                            Z.k - - - - 0 W.H.C.k - - $ - e K.K.V.5.&.| |                           ",
"                            !.i . . . . : ^.H.M.t . . . . : J.K.M.4.| { N                           ",
"                            OXB . . . . # G A m : . . . . 1 OX$X=Xq.b H @.                          ",
"                            }.V # - # O $ n f i : O + - + 2 XX$X=Xq.x | #.                          ",
"                            ) f.l.l.l.m i . X . 2 n 7.l.Q >.!.~./.i.| 9.9.                          ",
"                            :.n.H.C.C.u 0 . . . : w 7.C.g.k.W.F.H.*.| #.&.                          ",
"                            !.}.#X~.!.. . . . . . . u.W.#XXXW.N.:.` _ N _                           ",
"                            D.H.F.K.D.. O d h h ; . u.!.~.!.h.m.F.+.M D H                           ",
"                            M.g.:.x.M.. ; M.n.M.t . u.W.n.c.^ v.#Xr.b | #.                          ",
"                            M.N.N.,.-.*.r.F.H.J.1.E R.}.+X_.g.n.H.4.F | {                           ",
"                            M.D.!.-.^ !.!.!.Q./.n.:.}.OX*XoXM.M.M.4.@.{ F                           ",
"                                      K H N A @.N l H @.M M g z                                     ",
"                                      @.@.D D D c b N F c M d d                                     ",
"                                      Y.R.%XT.^ ] >.W I F.d.G G                                     ",
"                                      !.Y.(.G.h.g.h.( ^ N.p.H H                                     ",
"                                      S.m.-.m.XX/.!.S.S.) ~ H H                                     ",
"                                      ).Y.[ k._.A.b.f.:.Z.a.C C                                     ",
"                                      *X[./ ,.S.h.-.W P XXE.g d                                     ",
"                                      >.,.b.h.:.v.Z.-.) g.<.g g                                     ",
"                                      I ! A.h./ b.!.j.-./ ~ h l                                     ",
"                                      D.N.( v.'._.W.:./ |.I.J J                                     ",
"                                      W.A.-.b.`.!.S.( ^  XU.J J                                     ",
"                                      D.S.J.m.:.:.:.! P S.d.S S                                     ",
"                                      b.n.Z.b.g.;.-./ ^ b.p.S S                                     ",
"                                      / ) -.3.S.j./ m.A.;.=.S S                                     ",
"                                    5 T T Y } %.E U } o.R T w e *                                   ",
"                                  4 5 y y 4 r f 7 3 4 5 u w & % %                                   ",
"                                  y.y...R r q , v 2.P.L.q q < : *                                   ",
"                                  !.W.;.' y 8 &  .A.|.&X5 q 2 < *                                   ",
"                                  [ [ ;.~ 4 > % p ( _.OX4 4 * * -                                   ",
"                                  [ [ g.=.5 > & p -.^..X4 6 * * $                                   ",
"                                  Z.A.%XI.5 , + } Z.S.S.6 > & o .                                   ",
"                                  $.$.L.e., = + j $.2.6.; = & o .                                   ",
"                                  . . 9 6 . .   . . 4 7 . .                                         ",
"                                    . 9 4 .       . 4 9 .                                           ",
"                                                                                                    ",
"                                                                                                    ",
"                                                                                                    "
};
