/* XPM */
static char *edc75cd7beca4727fa0f61980f580036Sqkkwe4cvl4zBfHe[] = {
/* columns rows colors chars-per-pixel */
"50 50 191 2 ",
"   c None",
".  c #000000",
"X  c #0A0F09",
"o  c #061305",
"O  c #081B07",
"+  c #0C140B",
"@  c #0C1C0A",
"#  c #111E0F",
"$  c #141E12",
"%  c #082707",
"&  c #0D250B",
"*  c #0D2B0B",
"=  c #0D340C",
"-  c #13380F",
";  c #152214",
":  c #122F11",
">  c #1D3B1B",
",  c #153713",
"<  c #223421",
"1  c #293A28",
"2  c #2C352B",
"3  c #0E4B0E",
"4  c #164315",
"5  c #184E16",
"6  c #1C4F1A",
"7  c #164915",
"8  c #1D501B",
"9  c #20411E",
"0  c #205D19",
"q  c #284F25",
"w  c #2D4C2B",
"e  c #244822",
"r  c #30492B",
"t  c #2B5326",
"y  c #295426",
"u  c #32542E",
"i  c #305C2E",
"p  c #375434",
"a  c #395933",
"s  c #256522",
"d  c #2D622A",
"f  c #31612E",
"g  c #2C7629",
"h  c #31762C",
"j  c #3A6336",
"k  c #356C32",
"l  c #386A32",
"z  c #3A6637",
"x  c #357532",
"c  c #387734",
"v  c #3A7B36",
"b  c #3E7C3A",
"n  c #357833",
"m  c #42653B",
"M  c #456D3E",
"N  c #42743F",
"B  c #457D3E",
"V  c #477341",
"C  c #487140",
"Z  c #457B42",
"A  c #4B7D46",
"S  c #4E764B",
"D  c #4E7E4A",
"F  c #53784E",
"G  c #51774C",
"H  c #547F50",
"J  c #5E7B5A",
"K  c #18AC17",
"L  c #1BAB1A",
"P  c #238121",
"I  c #31852E",
"U  c #358632",
"Y  c #3D893A",
"T  c #31AB2E",
"R  c #35B532",
"E  c #39B735",
"W  c #3FB93B",
"Q  c #3CB438",
"!  c #429D3E",
"~  c #42BA3E",
"^  c #4D8146",
"/  c #4D8349",
"(  c #488D45",
")  c #52824D",
"_  c #518947",
"`  c #4F9948",
"'  c #4C9648",
"]  c #5A9B4F",
"[  c #53904A",
"{  c #558251",
"}  c #598254",
"|  c #5A8855",
" . c #5C8259",
".. c #579053",
"X. c #5B9B56",
"o. c #60855A",
"O. c #60935B",
"+. c #4DAF47",
"@. c #5AA64E",
"#. c #51A24C",
"$. c #4BB344",
"%. c #45BB41",
"&. c #49BC45",
"*. c #49B648",
"=. c #4DBE49",
"-. c #47B743",
";. c #52BE4E",
":. c #58A654",
">. c #5ABF56",
",. c #59B553",
"<. c #64AC5C",
"1. c #64A75F",
"2. c #67BA5A",
"3. c #6BBF5E",
"4. c #698566",
"5. c #6E8C6B",
"6. c #688365",
"7. c #70816E",
"8. c #739F6D",
"9. c #718170",
"0. c #7A9C75",
"q. c #68A362",
"w. c #6AAC63",
"e. c #6EA868",
"r. c #6EA76B",
"t. c #6DBE64",
"y. c #6EBC68",
"u. c #75BE6E",
"i. c #72B06A",
"p. c #77A672",
"a. c #53C04D",
"s. c #56C152",
"d. c #5AC354",
"f. c #5EC358",
"g. c #63C55D",
"h. c #6AC55C",
"j. c #69CC5C",
"k. c #67C661",
"l. c #6AC663",
"z. c #6DC964",
"x. c #6FCA69",
"c. c #71CF62",
"v. c #73CB6B",
"b. c #76C26B",
"n. c #75D067",
"m. c #76D069",
"M. c #79D06C",
"N. c #7AC571",
"B. c #76CB70",
"V. c #7BCE75",
"C. c #7FC47D",
"Z. c #7FCE78",
"A. c #7ED173",
"S. c #83B37E",
"D. c #84C37D",
"F. c #83CE7C",
"G. c #88CA7F",
"H. c #81D175",
"J. c #85D27B",
"K. c #89D37F",
"L. c #8CAA8A",
"P. c #8CB386",
"I. c #8AC582",
"U. c #8AD282",
"Y. c #8FD488",
"T. c #91D687",
"R. c #94D58C",
"E. c #97D88D",
"W. c #95CC91",
"Q. c #99C995",
"!. c #9FC09B",
"~. c #9BCE98",
"^. c #9BD694",
"/. c #97D591",
"(. c #A1D29B",
"). c #A2D99B",
"_. c #ADCCAB",
"`. c #A3CCA1",
"'. c #B1CEAF",
"]. c #A9D2A3",
"[. c #A7DAA0",
"{. c #ABDBA4",
"}. c #AFDCA8",
"|. c #A7D5A1",
" X c #B1D2AD",
".X c #B2DEAB",
"XX c #B4CBB3",
"oX c #BACEB9",
"OX c #BAD5B6",
"+X c #BFD2BD",
"@X c #B7D2B4",
/* pixels */
"                                                                                                    ",
"                                                                                                    ",
"                                                                                                    ",
"                                                                                                    ",
"                                                                                                    ",
"                            { { { 3.c.R.Y.c.H.R.R.E.m.n.+X`.R &.n.H.U.R.R.                          ",
"                            } { D 3.c./.T.n.A.U.R.R.H.M. XQ.~ a.c.H.R.T.R.                          ",
"                            7.V g u.U. X].R.Z.g.B.U.[.}.;.f.K.M.z.E.}.A.c.                          ",
"                            9.A h t.Z.(.^.K.M.g.x.B./.).h.v./.U.M.R.|.H.M.                          ",
"                            } ^ B ,.g.m.c.c.c.n.d.&.c.n.[.{. X~.U.U.U.U.U.                          ",
"                            6.o.{ y.N.c.z.] ] ] ` ' N.J.U.I.0.8.q.q.q.l.z.                          ",
"                            J 4.4.D.U.c.2.m m m N V D.E.n.2.m C V V V +.=.                          ",
"                            ) }  .b.m.H.w.; ; $ ; ; <.M.K.i.$ ; ; ; ; <.B.                          ",
"                            B D ) 3.c.U.e.. . . . . @.n.R.i.. . . . . e.U.                          ",
"                            ) B c !.@X}.P.. . . . . a M D m . . . . . P..X                          ",
"                            } Z c !.OX}.P.@ @ # + + r p j u + + # # # S.).                          ",
"                            4.} ) I./.U.B.T ~ h._ m + . X @ C _ h.h.h.~ E                           ",
"                            o.} ) u.F.U.F.s.h.M.A r X . . + u / M.A.J.d.=.                          ",
"                            B B B +.=.K.R..X).U.p . . . . . . p U.)..XT.U.                          ",
"                            ) B v u.F.g.k.R.T.U.p . t l l t . u M.Z.F.A.A.                          ",
"                            } Z x Q..XR ~ c.M.U.p . @.c.c.@.. u n.d.a.j.n.                          ",
"                            ^ ^ A b.H.d.c.).|.[.1.U N.U.H.N.O.#.~ g.v.n.j.                          ",
"                            ^ { { 3.c.n.H.+XOX.XB.=.K.R.U.U.U.k.R k.U.m.n.                          ",
"                                      l l N A H Z x D { N Z H )                                     ",
"                                      f k b Z Z v c Z / A D { {                                     ",
"                                      G  .U.s.L R -.Q Q XX_.I.U.                                    ",
"                                      H | x.s.E =.>.f.d.Q.W.J.J.                                    ",
"                                      H / E s.V.F.U.[.{.&.;.V.V.                                    ",
"                                      V / v.g.*.f.k.U./.W ;.~.~.                                    ",
"                                      k / {.x.L R &.v.V.E ;.oXoX                                    ",
"                                      k Y >.=.Q f.B.s.&.l.g.*.*.                                    ",
"                                      l v E W &.x.U.&.E V.l.K K                                     ",
"                                      J 5._.C.E l.U.^.).W a.V.V.                                    ",
"                                      J 5.'.C.R g.Z.^.^.%.s.F.U.                                    ",
"                                      S | V.s.L R =.a.=.J.F.V.V.                                    ",
"                                      S | z.s.E W ~ a.s.B.B.l.l.                                    ",
"                                      S / %.f.Z.s.R x.V.&.~ E E                                     ",
"                                    & w i Y ( ( U P ' X.I I U g 8                                   ",
"                                  % % % : u y 6 7 3 f j 5 6 u y 5                                   ",
"                                  * * < < q S L.r.:.y > y d ! #.w.                                  ",
"                                  * * 2 1 8  .oXW.V.e & t k &.g.U.                                  ",
"                                  ; ; * = 5 { }.x.W 4 & 5 s &.-.%.                                  ",
"                                  $ $ * = 5 ) [.l.W 4 & 5 s >.=.~                                   ",
"                                  . . & : 4 B V.V.V.e @ 8 z XX~.V.                                  ",
"                                  . . & * : f <.X...> @ , w P.p...                                  ",
"                                          . & 0 & .     . o 0 , .                                   ",
"                                          . & 0 & .     . o 0 - .                                   ",
"                                                                                                    ",
"                                                                                                    ",
"                                                                                                    "
};
