/* XPM */
static char *e45d8e7ef635475fc1760a4f420ecc5cKiNdGMnTrrkq4CE1[] = {
/* columns rows colors chars-per-pixel */
"40 32 137 2 ",
"   c None",
".  c #382B18",
"X  c #392C19",
"o  c #3E311E",
"O  c #3F321F",
"+  c #403220",
"@  c #403320",
"#  c #423522",
"$  c #453722",
"%  c #463926",
"&  c #4C3D26",
"*  c #57462B",
"=  c #58462B",
"-  c #59472B",
";  c #59462C",
":  c #5D4A2D",
">  c #5F4A2C",
",  c #5E4B2D",
"<  c #5D4A2E",
"1  c #5E4B2F",
"2  c #604B2D",
"3  c #624C2E",
"4  c #634D2E",
"5  c #624E2F",
"6  c #654E30",
"7  c #635031",
"8  c #665130",
"9  c #675231",
"0  c #675132",
"q  c #6A5333",
"w  c #695433",
"e  c #6B5432",
"r  c #6D5533",
"t  c #6E5633",
"y  c #6A5534",
"u  c #6B5635",
"i  c #6F5734",
"p  c #6C5636",
"a  c #6C5736",
"s  c #6E5834",
"d  c #6D5837",
"f  c #6F5A39",
"g  c #745C37",
"h  c #705B3A",
"j  c #7D643D",
"k  c #81653E",
"l  c #81693F",
"z  c #826A3F",
"x  c #836B3F",
"c  c #846C3F",
"v  c #856C3F",
"b  c #876B42",
"n  c #846C40",
"m  c #856D40",
"M  c #866D40",
"N  c #866D41",
"B  c #876F40",
"V  c #866E41",
"C  c #876E41",
"Z  c #876F41",
"A  c #876F42",
"S  c #886F42",
"D  c #887041",
"F  c #887042",
"G  c #897042",
"H  c #897142",
"J  c #897043",
"K  c #897143",
"L  c #8A7042",
"P  c #8A7142",
"I  c #8A7043",
"U  c #8A7143",
"Y  c #897242",
"T  c #8A7243",
"R  c #8B7243",
"E  c #8C7343",
"W  c #8B7344",
"Q  c #8C7244",
"!  c #8C7344",
"~  c #8C7345",
"^  c #8B7444",
"/  c #8C7444",
"(  c #8D7444",
")  c #8C7445",
"_  c #8D7445",
"`  c #8D7545",
"'  c #8E7545",
"]  c #8F7545",
"[  c #8E7645",
"{  c #8F7645",
"}  c #947A49",
"|  c #967B4A",
" . c #997F4A",
".. c #9A7F4A",
"X. c #9A804B",
"o. c #9F834C",
"O. c #9E824D",
"+. c #9F834D",
"@. c #9E844C",
"#. c #9F844C",
"$. c #9E844D",
"%. c #9F844D",
"&. c #A0824E",
"*. c #A1834F",
"=. c #A0854E",
"-. c #A1844F",
";. c #A1854F",
":. c #A2864F",
">. c #A28551",
",. c #A38650",
"<. c #A38651",
"1. c #A48750",
"2. c #A58750",
"3. c #A78751",
"4. c #A68851",
"5. c #A78851",
"6. c #A78852",
"7. c #A78952",
"8. c #A78A53",
"9. c #A88952",
"0. c #A88953",
"q. c #A98953",
"w. c #A98A53",
"e. c #AA8B54",
"r. c #AA8B55",
"t. c #AB8B55",
"y. c #AB8C54",
"u. c #AA8C55",
"i. c #AB8C55",
"p. c #AB8C56",
"a. c #AC8D55",
"s. c #AC8C56",
"d. c #AC8D56",
"f. c #AC8C57",
"g. c #AC8D57",
"h. c #AD8D57",
"j. c #AD8E57",
/* pixels */
"      $ $ y 6                                                     & & i j       ",
"      O O y q                                                     O O y n       ",
"      O O f *                                                     O O h i       ",
"      O O h e                                                     O O f g       ",
"      % % 9 i                                                     % % 9 3       ",
"      # # e i                                                     % % 9 ,       ",
"      @ @ y r                                                     # O e 4       ",
"      O O 9 j                                                     O O q d       ",
"      O O 9 2                                                     O O 9 6       ",
"      . X 9 3                                                     X X 9 1       ",
"      = ; y ;                                                     X . 9 1       ",
"      1 1 y q                                                     < 1 i =       ",
"%.%.%.%.%.j.j.f.%.%.i.p.+.%.=.E } 8.w.3.w.w.p.p.i.%.%.%.%.+.%.%.p.f.j.+.+.j.8.o.",
"%.%.+.+.+.j.f.j.%.%.j.p.%.%.=.F } w.8.w.8.p.p.=.=.%.%.( 8.8.8.8.p.i.p.+.+.w.w.w.",
"F F w.w.w.w.q.p.%.%.w.8.w.w.w.8.:.o.o.o.%.%.%.%.%.%.&.E q.8.w.3.8.j.i.%.%.w.w.w.",
"j.j.w.j.j.f.f.j.%.%.+.%.o.F E i.j.j.w.p.i.i.i.i.i.i.y.j.:.w.i.j.j.i.j.%.%.+.%.=.",
"j.j.p.g.g.f.f.i.=.=.%.%.=.J E j.y.j.w.j.j.i.i.i.i.i.i.i.8.w.i.j.p.p.i.+.%.%.=.&.",
"c l l n n n B B F F ^ ^ ~ B B S S S S B ( ( E E ^ ( ^ D B B B B B B B S J J F F ",
"c l n n B B v B E ( ( ( ( F F F F F F E ( { ( ( [ [ [ F J S A S B S B E ^ ( J F ",
"j.j.g.g.f.J F +.j.j.i.i.8.w.8.8.w.p.p.i.i.1.=.i.i.i.i.i.f.f.f.f.F +.+.f.g.g.p.w.",
"=.%.o.#.+.i.j.8.w.:.=.&.%.%.%.(  .p.%.%.%.%.%.%.%.%.%.+.%.%.%.%.j.8.q.8.w.%.%.%.",
"+.+.%.%.o.j.i.w.8.w.=.=.+.+.%.E } p.%.%.%.%.#.&.%.%.%.+.%.%.%.%.i.w.3.w.8.%.%.+.",
"w.w.w.j.j.i.j.%.%.#.&.#.%.8.8.3.3.3.3.3.8.:.=.p.p.3.3.8.8.8.i.f.j.=.&.=.+.+.=.=.",
"w.w.q.j.j.j.i.%.%.#.#.#.%.3.3.8.3.3.8.3.:.=.=.w.p.+.&.&.+.>.>.>.=. .X.X. . .X.X.",
"B S S n n B B n J J ( ^ ( ^ E E J B F J J J ( ( ~ S D ^ ^ ( B B B v v F F F F F ",
"j.j.j.f.g.&.+.j.%.%.%.%.%.%.%.%.>.p.( ( i.p.i.w.i.i.i.i.i.i.f.f.o.i.j.+.=.=.%.%.",
"j.j.j.j.g.%.+.i.%.%.%.%.%.+.%.%.=.w.( ( i.i.p.p.i.p.p.i.p.p.p.p.%.j.j.%.=.#.%.%.",
"S F j.j.g.g.i.j.%.%.i.i.8.8.8.o.%.%.%.%.%.>.3.8.8.+.+.F p.p.p.p.i.j.i.%.&.j.w.w.",
"F F j.j.g.j.f.j.=.%.i.i.8.8.0.+.%.=.=.=.+.=.w.3.3.+.+.~ p.p.p.p.j.i.j.+.=.j.w.w.",
"=.=.=.=.&.=.o.8.w.w.j.i.p.p.p.0.+.F i.i.p.3.+.p.p.p.p.+.+.+.%.+.%.i.8.w.w.j.j.j.",
"l l F F J J F F ~ F ~ F F S B b B B B B ~ ~ J B B B B B ( F J J F J J F F F F F ",
"l l F F ^ J F F F E F E F S A B A B B B ~ ~ ~ B B B B B E ^ F ^ ( J J F E F F F "
};
